%TF.GenerationSoftware,KiCad,Pcbnew,10.0.1*%
%TF.CreationDate,2026-05-25T17:39:05-06:00*%
%TF.ProjectId,Reto_Desing,5265746f-5f44-4657-9369-6e672e6b6963,rev?*%
%TF.SameCoordinates,Original*%
%TF.FileFunction,Copper,L1,Top*%
%TF.FilePolarity,Positive*%
%FSLAX46Y46*%
G04 Gerber Fmt 4.6, Leading zero omitted, Abs format (unit mm)*
G04 Created by KiCad (PCBNEW 10.0.1) date 2026-05-25 17:39:05*
%MOMM*%
%LPD*%
G01*
G04 APERTURE LIST*
G04 Aperture macros list*
%AMRoundRect*
0 Rectangle with rounded corners*
0 $1 Rounding radius*
0 $2 $3 $4 $5 $6 $7 $8 $9 X,Y pos of 4 corners*
0 Add a 4 corners polygon primitive as box body*
4,1,4,$2,$3,$4,$5,$6,$7,$8,$9,$2,$3,0*
0 Add four circle primitives for the rounded corners*
1,1,$1+$1,$2,$3*
1,1,$1+$1,$4,$5*
1,1,$1+$1,$6,$7*
1,1,$1+$1,$8,$9*
0 Add four rect primitives between the rounded corners*
20,1,$1+$1,$2,$3,$4,$5,0*
20,1,$1+$1,$4,$5,$6,$7,0*
20,1,$1+$1,$6,$7,$8,$9,0*
20,1,$1+$1,$8,$9,$2,$3,0*%
G04 Aperture macros list end*
%TA.AperFunction,ComponentPad*%
%ADD10R,3.000000X3.000000*%
%TD*%
%TA.AperFunction,ComponentPad*%
%ADD11C,3.000000*%
%TD*%
%TA.AperFunction,ComponentPad*%
%ADD12R,1.905000X2.000000*%
%TD*%
%TA.AperFunction,ComponentPad*%
%ADD13O,1.905000X2.000000*%
%TD*%
%TA.AperFunction,ComponentPad*%
%ADD14C,1.600000*%
%TD*%
%TA.AperFunction,ComponentPad*%
%ADD15R,1.800000X1.800000*%
%TD*%
%TA.AperFunction,ComponentPad*%
%ADD16C,1.800000*%
%TD*%
%TA.AperFunction,ComponentPad*%
%ADD17RoundRect,0.250000X-1.350000X-1.350000X1.350000X-1.350000X1.350000X1.350000X-1.350000X1.350000X0*%
%TD*%
%TA.AperFunction,ComponentPad*%
%ADD18C,3.200000*%
%TD*%
%TA.AperFunction,ComponentPad*%
%ADD19RoundRect,0.250000X-0.550000X-0.550000X0.550000X-0.550000X0.550000X0.550000X-0.550000X0.550000X0*%
%TD*%
%TA.AperFunction,Conductor*%
%ADD20C,0.200000*%
%TD*%
G04 APERTURE END LIST*
D10*
%TO.P,J9,1,Pin_1_1*%
%TO.N,/5V*%
X111250000Y-71907500D03*
D11*
%TO.P,J9,2,Pin_2_2*%
%TO.N,GND_ECU*%
X111250000Y-68027500D03*
%TD*%
D12*
%TO.P,Q3,1,G_1*%
%TO.N,Net-(Q3-G)*%
X128000000Y-32500000D03*
D13*
%TO.P,Q3,2,D_2*%
%TO.N,Net-(D6-K)*%
X125460000Y-32500000D03*
%TO.P,Q3,3,S_3*%
%TO.N,/12V*%
X122920000Y-32500000D03*
%TD*%
D10*
%TO.P,J8,1,Pin_1_1*%
%TO.N,/SDA*%
X111250000Y-61880000D03*
D11*
%TO.P,J8,2,Pin_2_2*%
%TO.N,/SCL*%
X111250000Y-58000000D03*
%TD*%
D14*
%TO.P,R6,1*%
%TO.N,/ECU_ACC*%
X88650000Y-90000000D03*
%TO.P,R6,2*%
%TO.N,GND_ECU*%
X88650000Y-79840000D03*
%TD*%
%TO.P,R5,1*%
%TO.N,/ECU_ACC*%
X83650000Y-90000000D03*
%TO.P,R5,2*%
%TO.N,Net-(R5-Pad2)*%
X83650000Y-79840000D03*
%TD*%
%TO.P,R8,1*%
%TO.N,Net-(Q2-G)*%
X98975000Y-89925000D03*
%TO.P,R8,2*%
%TO.N,/12V*%
X98975000Y-79765000D03*
%TD*%
D15*
%TO.P,D3,1,K_1*%
%TO.N,GND_ECU*%
X97263200Y-69521900D03*
D16*
%TO.P,D3,2,A_2*%
%TO.N,Net-(D3-A)*%
X99803200Y-69521900D03*
%TD*%
D15*
%TO.P,D1,1,K_1*%
%TO.N,GND_ECU*%
X74000000Y-69500000D03*
D16*
%TO.P,D1,2,A_2*%
%TO.N,Net-(D1-A)*%
X76540000Y-69500000D03*
%TD*%
D10*
%TO.P,J2,1,Pin_1_1*%
%TO.N,/ECU_BAT*%
X63000000Y-53120000D03*
D11*
%TO.P,J2,2,Pin_2_2*%
%TO.N,/ECU_ACC*%
X63000000Y-57000000D03*
%TD*%
D14*
%TO.P,R11,1*%
%TO.N,/ECU_IGN*%
X116100000Y-89910000D03*
%TO.P,R11,2*%
%TO.N,Net-(D3-A)*%
X116100000Y-79750000D03*
%TD*%
D10*
%TO.P,J4,1,Pin_1_1*%
%TO.N,Net-(D4-K)*%
X68880000Y-35000000D03*
D11*
%TO.P,J4,2,Pin_2_2*%
%TO.N,GND_12V*%
X65000000Y-35000000D03*
%TD*%
D17*
%TO.P,D5,1,K_1*%
%TO.N,Net-(D5-K)*%
X95880000Y-48000000D03*
D18*
%TO.P,D5,2,A_2*%
%TO.N,GND_12V*%
X111120000Y-48000000D03*
%TD*%
D14*
%TO.P,R2,1*%
%TO.N,/ECU_BAT*%
X67150000Y-90000000D03*
%TO.P,R2,2*%
%TO.N,GND_ECU*%
X67150000Y-79840000D03*
%TD*%
D17*
%TO.P,D4,1,K_1*%
%TO.N,Net-(D4-K)*%
X73880000Y-48000000D03*
D18*
%TO.P,D4,2,A_2*%
%TO.N,GND_12V*%
X89120000Y-48000000D03*
%TD*%
D14*
%TO.P,R1,1*%
%TO.N,/ECU_BAT*%
X62150000Y-90000000D03*
%TO.P,R1,2*%
%TO.N,Net-(R1-Pad2)*%
X62150000Y-79840000D03*
%TD*%
%TO.P,R12,1*%
%TO.N,Net-(Q3-G)*%
X120900000Y-89910000D03*
%TO.P,R12,2*%
%TO.N,/12V*%
X120900000Y-79750000D03*
%TD*%
%TO.P,R10,1*%
%TO.N,/ECU_IGN*%
X110800000Y-89910000D03*
%TO.P,R10,2*%
%TO.N,GND_ECU*%
X110800000Y-79750000D03*
%TD*%
D19*
%TO.P,U2,1*%
%TO.N,Net-(R5-Pad2)*%
X83460000Y-58960000D03*
D14*
%TO.P,U2,2*%
%TO.N,GND_ECU*%
X83460000Y-61500000D03*
%TO.P,U2,3*%
%TO.N,GND_12V*%
X91080000Y-61500000D03*
%TO.P,U2,4*%
%TO.N,Net-(Q2-G)*%
X91080000Y-58960000D03*
%TD*%
D19*
%TO.P,U1,1*%
%TO.N,Net-(R1-Pad2)*%
X71470000Y-58950000D03*
D14*
%TO.P,U1,2*%
%TO.N,GND_ECU*%
X71470000Y-61490000D03*
%TO.P,U1,3*%
%TO.N,GND_12V*%
X79090000Y-61490000D03*
%TO.P,U1,4*%
%TO.N,Net-(Q1-G)*%
X79090000Y-58950000D03*
%TD*%
D15*
%TO.P,D2,1,K_1*%
%TO.N,GND_ECU*%
X85725000Y-69500000D03*
D16*
%TO.P,D2,2,A_2*%
%TO.N,Net-(D2-A)*%
X88265000Y-69500000D03*
%TD*%
D10*
%TO.P,J3,1,Pin_1_1*%
%TO.N,/ECU_IGN*%
X63000000Y-63620000D03*
D11*
%TO.P,J3,2,Pin_2_2*%
%TO.N,GND_ECU*%
X63000000Y-67500000D03*
%TD*%
D14*
%TO.P,R9,1*%
%TO.N,/ECU_IGN*%
X105613500Y-90080000D03*
%TO.P,R9,2*%
%TO.N,Net-(R9-Pad2)*%
X105613500Y-79920000D03*
%TD*%
D10*
%TO.P,J1,1,Pin_1_1*%
%TO.N,/12V*%
X140500000Y-39500000D03*
D11*
%TO.P,J1,2,Pin_2_2*%
%TO.N,GND_12V*%
X140500000Y-35620000D03*
%TD*%
D17*
%TO.P,D6,1,K_1*%
%TO.N,Net-(D6-K)*%
X117380000Y-48000000D03*
D18*
%TO.P,D6,2,A_2*%
%TO.N,GND_12V*%
X132620000Y-48000000D03*
%TD*%
D14*
%TO.P,R3,1*%
%TO.N,/ECU_BAT*%
X72175000Y-89925000D03*
%TO.P,R3,2*%
%TO.N,Net-(D1-A)*%
X72175000Y-79765000D03*
%TD*%
D12*
%TO.P,Q2,1,G_1*%
%TO.N,Net-(Q2-G)*%
X104000000Y-32500000D03*
D13*
%TO.P,Q2,2,D_2*%
%TO.N,Net-(D5-K)*%
X101460000Y-32500000D03*
%TO.P,Q2,3,S_3*%
%TO.N,/12V*%
X98920000Y-32500000D03*
%TD*%
D10*
%TO.P,J6,1,Pin_1_1*%
%TO.N,Net-(D6-K)*%
X115907500Y-35000000D03*
D11*
%TO.P,J6,2,Pin_2_2*%
%TO.N,GND_12V*%
X112027500Y-35000000D03*
%TD*%
D10*
%TO.P,J10,1,Pin_1_1*%
%TO.N,/5V*%
X129245000Y-85750000D03*
D11*
%TO.P,J10,2,Pin_2_2*%
%TO.N,GND_ECU*%
X133125000Y-85750000D03*
%TD*%
D19*
%TO.P,U3,1*%
%TO.N,Net-(R9-Pad2)*%
X94958200Y-58946900D03*
D14*
%TO.P,U3,2*%
%TO.N,GND_ECU*%
X94958200Y-61486900D03*
%TO.P,U3,3*%
%TO.N,GND_12V*%
X102578200Y-61486900D03*
%TO.P,U3,4*%
%TO.N,Net-(Q3-G)*%
X102578200Y-58946900D03*
%TD*%
D12*
%TO.P,Q1,1,G_1*%
%TO.N,Net-(Q1-G)*%
X80940000Y-32400000D03*
D13*
%TO.P,Q1,2,D_2*%
%TO.N,Net-(D4-K)*%
X78400000Y-32400000D03*
%TO.P,Q1,3,S_3*%
%TO.N,/12V*%
X75860000Y-32400000D03*
%TD*%
D10*
%TO.P,J5,1,Pin_1_1*%
%TO.N,Net-(D5-K)*%
X91407500Y-35000000D03*
D11*
%TO.P,J5,2,Pin_2_2*%
%TO.N,GND_12V*%
X87527500Y-35000000D03*
%TD*%
D10*
%TO.P,J7,1,Pin_1_1*%
%TO.N,/SDA*%
X141325000Y-85700000D03*
D11*
%TO.P,J7,2,Pin_2_2*%
%TO.N,/SCL*%
X145205000Y-85700000D03*
%TD*%
D14*
%TO.P,R7,1*%
%TO.N,/ECU_ACC*%
X94150000Y-90000000D03*
%TO.P,R7,2*%
%TO.N,Net-(D2-A)*%
X94150000Y-79840000D03*
%TD*%
%TO.P,R4,1*%
%TO.N,Net-(Q1-G)*%
X76900000Y-90080000D03*
%TO.P,R4,2*%
%TO.N,/12V*%
X76900000Y-79920000D03*
%TD*%
%TO.N,GND_ECU*%
D20*
X64731700Y-65768300D02*
X63000000Y-67500000D01*
X97263200Y-68321700D02*
X97557400Y-68027500D01*
X97263200Y-68321700D02*
X97263200Y-68320200D01*
X97263200Y-69521900D02*
X97263200Y-68421000D01*
X83460000Y-66033300D02*
X85725000Y-68298300D01*
X85725000Y-69500000D02*
X85725000Y-68298300D01*
X83460000Y-61500000D02*
X83460000Y-66033300D01*
X97263200Y-68421000D02*
X97263200Y-68321700D01*
X97557400Y-68027500D02*
X111250000Y-68027500D01*
X98464900Y-69897400D02*
X98464900Y-69521900D01*
X71470000Y-65768300D02*
X74000000Y-68298300D01*
X85725000Y-68298300D02*
X88008100Y-66015200D01*
X71470000Y-61490000D02*
X71470000Y-65768300D01*
X74000000Y-69500000D02*
X74000000Y-68298300D01*
X85725000Y-69500000D02*
X85725000Y-76915000D01*
X110800000Y-79750000D02*
X108317500Y-79750000D01*
X108317500Y-79750000D02*
X98464900Y-69897400D01*
X71470000Y-65768300D02*
X64731700Y-65768300D01*
X114998300Y-83948300D02*
X110800000Y-79750000D01*
X67150000Y-79840000D02*
X74000000Y-72990000D01*
X133125000Y-85750000D02*
X131323300Y-83948300D01*
X97263200Y-69521900D02*
X98464900Y-69521900D01*
X74000000Y-72990000D02*
X74000000Y-69500000D01*
X88008100Y-66015200D02*
X94958200Y-66015200D01*
X94958200Y-66015200D02*
X97263200Y-68320200D01*
X85725000Y-76915000D02*
X88650000Y-79840000D01*
X94958200Y-61486900D02*
X94958200Y-66015200D01*
X131323300Y-83948300D02*
X114998300Y-83948300D01*
%TO.N,Net-(D6-K)*%
X117380000Y-48000000D02*
X115907500Y-46527500D01*
X116332400Y-43067600D02*
X124400000Y-35000000D01*
X125100000Y-35000000D02*
X125460000Y-34640000D01*
X115907500Y-43067600D02*
X116332400Y-43067600D01*
X124400000Y-35000000D02*
X125100000Y-35000000D01*
X125460000Y-34640000D02*
X125460000Y-32500000D01*
X115907500Y-43067600D02*
X115907500Y-35000000D01*
X115907500Y-46527500D02*
X115907500Y-43067600D01*
%TO.N,/12V*%
X97783900Y-80956100D02*
X98975000Y-79765000D01*
X77936100Y-80956100D02*
X97783900Y-80956100D01*
X76900000Y-79920000D02*
X77936100Y-80956100D01*
%TO.N,/SDA*%
X115703300Y-61880000D02*
X111250000Y-61880000D01*
X139523300Y-85700000D02*
X115703300Y-61880000D01*
X141325000Y-85700000D02*
X139523300Y-85700000D01*
%TO.N,/SCL*%
X145205000Y-85700000D02*
X143125000Y-85700000D01*
X143125000Y-76325000D02*
X124800000Y-58000000D01*
X143125000Y-85700000D02*
X143125000Y-76325000D01*
X124800000Y-58000000D02*
X111250000Y-58000000D01*
%TO.N,/ECU_ACC*%
X94150000Y-90000000D02*
X88650000Y-90000000D01*
X83650000Y-90000000D02*
X88650000Y-90000000D01*
%TO.N,Net-(R5-Pad2)*%
X82299000Y-78489000D02*
X83650000Y-79840000D01*
X83460000Y-58960000D02*
X82299000Y-60121000D01*
X82299000Y-60121000D02*
X82299000Y-78489000D01*
%TO.N,Net-(Q2-G)*%
X91080000Y-58960000D02*
X104000000Y-46040000D01*
X104000000Y-46040000D02*
X104000000Y-32500000D01*
%TO.N,Net-(D3-A)*%
X105812100Y-75530800D02*
X111880800Y-75530800D01*
X99803200Y-69521900D02*
X105812100Y-75530800D01*
X111880800Y-75530800D02*
X116100000Y-79750000D01*
%TO.N,Net-(D1-A)*%
X76540000Y-69500000D02*
X76540000Y-74879300D01*
X72175000Y-79244300D02*
X72175000Y-79765000D01*
X76540000Y-74879300D02*
X72175000Y-79244300D01*
%TO.N,/ECU_BAT*%
X60280000Y-53120000D02*
X59300000Y-54100000D01*
X62150000Y-90000000D02*
X67150000Y-90000000D01*
X72175000Y-89925000D02*
X67225000Y-89925000D01*
X63000000Y-53120000D02*
X60280000Y-53120000D01*
X59300000Y-87150000D02*
X62150000Y-90000000D01*
X59300000Y-54100000D02*
X59300000Y-87150000D01*
X67225000Y-89925000D02*
X67150000Y-90000000D01*
%TO.N,/ECU_IGN*%
X110630000Y-90080000D02*
X110800000Y-89910000D01*
X105613500Y-90080000D02*
X110630000Y-90080000D01*
X110800000Y-89910000D02*
X116100000Y-89910000D01*
%TO.N,Net-(D4-K)*%
X73880000Y-48000000D02*
X68880000Y-43000000D01*
X78400000Y-32400000D02*
X78400000Y-34400000D01*
X68880000Y-43000000D02*
X68880000Y-35000000D01*
X78400000Y-34400000D02*
X77800000Y-35000000D01*
X77800000Y-35000000D02*
X68880000Y-35000000D01*
%TO.N,GND_12V*%
X111120000Y-48000000D02*
X112027500Y-47092500D01*
X112027500Y-47092500D02*
X112027500Y-35000000D01*
X132620000Y-48000000D02*
X132620000Y-43500000D01*
X114890100Y-49955100D02*
X130664900Y-49955100D01*
X101447600Y-60356300D02*
X92223700Y-60356300D01*
X130664900Y-49955100D02*
X132620000Y-48000000D01*
X132620000Y-43500000D02*
X140500000Y-35620000D01*
X101447600Y-57672400D02*
X111120000Y-48000000D01*
X87527500Y-46407500D02*
X87527500Y-35000000D01*
X102578200Y-61486900D02*
X101447600Y-60356300D01*
X89120000Y-48000000D02*
X87527500Y-46407500D01*
X92223700Y-60356300D02*
X91080000Y-61500000D01*
X101447600Y-60356300D02*
X101447600Y-57672400D01*
X112027500Y-47092500D02*
X114890100Y-49955100D01*
%TO.N,Net-(D5-K)*%
X95880000Y-48000000D02*
X95880000Y-41274200D01*
X95880000Y-41274200D02*
X94830400Y-40224600D01*
X91407500Y-35000000D02*
X91407500Y-36801700D01*
X101460000Y-32500000D02*
X101460000Y-33801700D01*
X94830400Y-40224600D02*
X91407500Y-36801700D01*
X101253300Y-33801700D02*
X101460000Y-33801700D01*
X94830400Y-40224600D02*
X101253300Y-33801700D01*
%TO.N,Net-(R1-Pad2)*%
X60400000Y-61100000D02*
X60400000Y-78090000D01*
X61200000Y-60300000D02*
X60400000Y-61100000D01*
X62700000Y-60300000D02*
X61200000Y-60300000D01*
X64300000Y-59500000D02*
X63500000Y-59500000D01*
X60400000Y-78090000D02*
X62150000Y-79840000D01*
X63500000Y-59500000D02*
X62700000Y-60300000D01*
X64850000Y-58950000D02*
X64300000Y-59500000D01*
X71470000Y-58950000D02*
X64850000Y-58950000D01*
%TO.N,Net-(Q1-G)*%
X77747900Y-74262800D02*
X77747900Y-60292100D01*
X77747900Y-60292100D02*
X79090000Y-58950000D01*
X80940000Y-32400000D02*
X80940000Y-35260000D01*
X75773600Y-76237100D02*
X77747900Y-74262800D01*
X75773600Y-88953600D02*
X75773600Y-76237100D01*
X79685800Y-36514200D02*
X79685800Y-58354200D01*
X80940000Y-35260000D02*
X79685800Y-36514200D01*
X76900000Y-90080000D02*
X75773600Y-88953600D01*
X79685800Y-58354200D02*
X79090000Y-58950000D01*
%TO.N,Net-(D2-A)*%
X88265000Y-69500000D02*
X94150000Y-75385000D01*
X94150000Y-75385000D02*
X94150000Y-79840000D01*
%TD*%
M02*
