M48
; DRILL file KiCad 10.0.1 date 2026-05-25T17:39:07
; FORMAT={-:-/ absolute / metric / decimal}
; #@! TF.CreationDate,2026-05-25T17:39:07-06:00
; #@! TF.GenerationSoftware,Kicad,Pcbnew,10.0.1
; #@! TF.FileFunction,MixedPlating,1,2
FMAT,2
METRIC
; #@! TA.AperFunction,Plated,PTH,ComponentDrill
T1C0.800
; #@! TA.AperFunction,Plated,PTH,ComponentDrill
T2C0.900
; #@! TA.AperFunction,Plated,PTH,ComponentDrill
T3C1.100
; #@! TA.AperFunction,Plated,PTH,ComponentDrill
T4C1.600
; #@! TA.AperFunction,Plated,PTH,ComponentDrill
T5C1.750
; #@! TA.AperFunction,NonPlated,NPTH,ComponentDrill
T6C3.200
%
G90
G05
T1
X62.15Y-79.84
X62.15Y-90.0
X67.15Y-79.84
X67.15Y-90.0
X71.47Y-58.95
X71.47Y-61.49
X72.175Y-79.765
X72.175Y-89.925
X76.9Y-79.92
X76.9Y-90.08
X79.09Y-58.95
X79.09Y-61.49
X83.46Y-58.96
X83.46Y-61.5
X83.65Y-79.84
X83.65Y-90.0
X88.65Y-79.84
X88.65Y-90.0
X91.08Y-58.96
X91.08Y-61.5
X94.15Y-79.84
X94.15Y-90.0
X94.958Y-58.947
X94.958Y-61.487
X98.975Y-79.765
X98.975Y-89.925
X102.578Y-58.947
X102.578Y-61.487
X105.614Y-79.92
X105.614Y-90.08
X110.8Y-79.75
X110.8Y-89.91
X116.1Y-79.75
X116.1Y-89.91
X120.9Y-79.75
X120.9Y-89.91
T2
X74.0Y-69.5
X76.54Y-69.5
X85.725Y-69.5
X88.265Y-69.5
X97.263Y-69.522
X99.803Y-69.522
T3
X75.86Y-32.4
X78.4Y-32.4
X80.94Y-32.4
X98.92Y-32.5
X101.46Y-32.5
X104.0Y-32.5
X122.92Y-32.5
X125.46Y-32.5
X128.0Y-32.5
T4
X73.88Y-48.0
X89.12Y-48.0
X95.88Y-48.0
X111.12Y-48.0
X117.38Y-48.0
X132.62Y-48.0
T5
X63.0Y-53.12
X63.0Y-57.0
X63.0Y-63.62
X63.0Y-67.5
X65.0Y-35.0
X68.88Y-35.0
X87.527Y-35.0
X91.407Y-35.0
X111.25Y-58.0
X111.25Y-61.88
X111.25Y-68.028
X111.25Y-71.907
X112.027Y-35.0
X115.907Y-35.0
X129.245Y-85.75
X133.125Y-85.75
X140.5Y-35.62
X140.5Y-39.5
X141.325Y-85.7
X145.205Y-85.7
T6
X57.5Y-31.1
X57.5Y-95.0
X132.4Y-57.3
X132.4Y-72.1
X149.5Y-31.1
X149.5Y-95.0
M30
