%TF.GenerationSoftware,KiCad,Pcbnew,10.0.1*%
%TF.CreationDate,2026-05-25T17:39:05-06:00*%
%TF.ProjectId,Reto_Desing,5265746f-5f44-4657-9369-6e672e6b6963,rev?*%
%TF.SameCoordinates,Original*%
%TF.FileFunction,Legend,Top*%
%TF.FilePolarity,Positive*%
%FSLAX46Y46*%
G04 Gerber Fmt 4.6, Leading zero omitted, Abs format (unit mm)*
G04 Created by KiCad (PCBNEW 10.0.1) date 2026-05-25 17:39:05*
%MOMM*%
%LPD*%
G01*
G04 APERTURE LIST*
%ADD10C,0.100000*%
%ADD11C,0.125000*%
%ADD12C,0.300000*%
%ADD13C,0.150000*%
%ADD14C,0.120000*%
G04 APERTURE END LIST*
D10*
X58650000Y-77500000D02*
X79150000Y-77500000D01*
X79150000Y-93000000D01*
X58650000Y-93000000D01*
X58650000Y-77500000D01*
X80150000Y-77500000D02*
X101150000Y-77500000D01*
X101150000Y-93000000D01*
X80150000Y-93000000D01*
X80150000Y-77500000D01*
X102150000Y-77500000D02*
X124400000Y-77500000D01*
X124400000Y-93000000D01*
X102150000Y-93000000D01*
X102150000Y-77500000D01*
X68537217Y-76348609D02*
X68680074Y-76396228D01*
X68680074Y-76396228D02*
X68727693Y-76443847D01*
X68727693Y-76443847D02*
X68775312Y-76539085D01*
X68775312Y-76539085D02*
X68775312Y-76681942D01*
X68775312Y-76681942D02*
X68727693Y-76777180D01*
X68727693Y-76777180D02*
X68680074Y-76824800D01*
X68680074Y-76824800D02*
X68584836Y-76872419D01*
X68584836Y-76872419D02*
X68203884Y-76872419D01*
X68203884Y-76872419D02*
X68203884Y-75872419D01*
X68203884Y-75872419D02*
X68537217Y-75872419D01*
X68537217Y-75872419D02*
X68632455Y-75920038D01*
X68632455Y-75920038D02*
X68680074Y-75967657D01*
X68680074Y-75967657D02*
X68727693Y-76062895D01*
X68727693Y-76062895D02*
X68727693Y-76158133D01*
X68727693Y-76158133D02*
X68680074Y-76253371D01*
X68680074Y-76253371D02*
X68632455Y-76300990D01*
X68632455Y-76300990D02*
X68537217Y-76348609D01*
X68537217Y-76348609D02*
X68203884Y-76348609D01*
X69156265Y-76586704D02*
X69632455Y-76586704D01*
X69061027Y-76872419D02*
X69394360Y-75872419D01*
X69394360Y-75872419D02*
X69727693Y-76872419D01*
X69918170Y-75872419D02*
X70489598Y-75872419D01*
X70203884Y-76872419D02*
X70203884Y-75872419D01*
X89906265Y-76586704D02*
X90382455Y-76586704D01*
X89811027Y-76872419D02*
X90144360Y-75872419D01*
X90144360Y-75872419D02*
X90477693Y-76872419D01*
X91382455Y-76777180D02*
X91334836Y-76824800D01*
X91334836Y-76824800D02*
X91191979Y-76872419D01*
X91191979Y-76872419D02*
X91096741Y-76872419D01*
X91096741Y-76872419D02*
X90953884Y-76824800D01*
X90953884Y-76824800D02*
X90858646Y-76729561D01*
X90858646Y-76729561D02*
X90811027Y-76634323D01*
X90811027Y-76634323D02*
X90763408Y-76443847D01*
X90763408Y-76443847D02*
X90763408Y-76300990D01*
X90763408Y-76300990D02*
X90811027Y-76110514D01*
X90811027Y-76110514D02*
X90858646Y-76015276D01*
X90858646Y-76015276D02*
X90953884Y-75920038D01*
X90953884Y-75920038D02*
X91096741Y-75872419D01*
X91096741Y-75872419D02*
X91191979Y-75872419D01*
X91191979Y-75872419D02*
X91334836Y-75920038D01*
X91334836Y-75920038D02*
X91382455Y-75967657D01*
X92382455Y-76777180D02*
X92334836Y-76824800D01*
X92334836Y-76824800D02*
X92191979Y-76872419D01*
X92191979Y-76872419D02*
X92096741Y-76872419D01*
X92096741Y-76872419D02*
X91953884Y-76824800D01*
X91953884Y-76824800D02*
X91858646Y-76729561D01*
X91858646Y-76729561D02*
X91811027Y-76634323D01*
X91811027Y-76634323D02*
X91763408Y-76443847D01*
X91763408Y-76443847D02*
X91763408Y-76300990D01*
X91763408Y-76300990D02*
X91811027Y-76110514D01*
X91811027Y-76110514D02*
X91858646Y-76015276D01*
X91858646Y-76015276D02*
X91953884Y-75920038D01*
X91953884Y-75920038D02*
X92096741Y-75872419D01*
X92096741Y-75872419D02*
X92191979Y-75872419D01*
X92191979Y-75872419D02*
X92334836Y-75920038D01*
X92334836Y-75920038D02*
X92382455Y-75967657D01*
X111953884Y-76872419D02*
X111953884Y-75872419D01*
X112953883Y-75920038D02*
X112858645Y-75872419D01*
X112858645Y-75872419D02*
X112715788Y-75872419D01*
X112715788Y-75872419D02*
X112572931Y-75920038D01*
X112572931Y-75920038D02*
X112477693Y-76015276D01*
X112477693Y-76015276D02*
X112430074Y-76110514D01*
X112430074Y-76110514D02*
X112382455Y-76300990D01*
X112382455Y-76300990D02*
X112382455Y-76443847D01*
X112382455Y-76443847D02*
X112430074Y-76634323D01*
X112430074Y-76634323D02*
X112477693Y-76729561D01*
X112477693Y-76729561D02*
X112572931Y-76824800D01*
X112572931Y-76824800D02*
X112715788Y-76872419D01*
X112715788Y-76872419D02*
X112811026Y-76872419D01*
X112811026Y-76872419D02*
X112953883Y-76824800D01*
X112953883Y-76824800D02*
X113001502Y-76777180D01*
X113001502Y-76777180D02*
X113001502Y-76443847D01*
X113001502Y-76443847D02*
X112811026Y-76443847D01*
X113430074Y-76872419D02*
X113430074Y-75872419D01*
X113430074Y-75872419D02*
X114001502Y-76872419D01*
X114001502Y-76872419D02*
X114001502Y-75872419D01*
D11*
X128421521Y-91521119D02*
X127945331Y-91521119D01*
X127945331Y-91521119D02*
X127897712Y-91997309D01*
X127897712Y-91997309D02*
X127945331Y-91949690D01*
X127945331Y-91949690D02*
X128040569Y-91902071D01*
X128040569Y-91902071D02*
X128278664Y-91902071D01*
X128278664Y-91902071D02*
X128373902Y-91949690D01*
X128373902Y-91949690D02*
X128421521Y-91997309D01*
X128421521Y-91997309D02*
X128469140Y-92092547D01*
X128469140Y-92092547D02*
X128469140Y-92330642D01*
X128469140Y-92330642D02*
X128421521Y-92425880D01*
X128421521Y-92425880D02*
X128373902Y-92473500D01*
X128373902Y-92473500D02*
X128278664Y-92521119D01*
X128278664Y-92521119D02*
X128040569Y-92521119D01*
X128040569Y-92521119D02*
X127945331Y-92473500D01*
X127945331Y-92473500D02*
X127897712Y-92425880D01*
X128754855Y-91521119D02*
X129088188Y-92521119D01*
X129088188Y-92521119D02*
X129421521Y-91521119D01*
X132469140Y-91568738D02*
X132373902Y-91521119D01*
X132373902Y-91521119D02*
X132231045Y-91521119D01*
X132231045Y-91521119D02*
X132088188Y-91568738D01*
X132088188Y-91568738D02*
X131992950Y-91663976D01*
X131992950Y-91663976D02*
X131945331Y-91759214D01*
X131945331Y-91759214D02*
X131897712Y-91949690D01*
X131897712Y-91949690D02*
X131897712Y-92092547D01*
X131897712Y-92092547D02*
X131945331Y-92283023D01*
X131945331Y-92283023D02*
X131992950Y-92378261D01*
X131992950Y-92378261D02*
X132088188Y-92473500D01*
X132088188Y-92473500D02*
X132231045Y-92521119D01*
X132231045Y-92521119D02*
X132326283Y-92521119D01*
X132326283Y-92521119D02*
X132469140Y-92473500D01*
X132469140Y-92473500D02*
X132516759Y-92425880D01*
X132516759Y-92425880D02*
X132516759Y-92092547D01*
X132516759Y-92092547D02*
X132326283Y-92092547D01*
X132945331Y-92521119D02*
X132945331Y-91521119D01*
X132945331Y-91521119D02*
X133516759Y-92521119D01*
X133516759Y-92521119D02*
X133516759Y-91521119D01*
X133992950Y-92521119D02*
X133992950Y-91521119D01*
X133992950Y-91521119D02*
X134231045Y-91521119D01*
X134231045Y-91521119D02*
X134373902Y-91568738D01*
X134373902Y-91568738D02*
X134469140Y-91663976D01*
X134469140Y-91663976D02*
X134516759Y-91759214D01*
X134516759Y-91759214D02*
X134564378Y-91949690D01*
X134564378Y-91949690D02*
X134564378Y-92092547D01*
X134564378Y-92092547D02*
X134516759Y-92283023D01*
X134516759Y-92283023D02*
X134469140Y-92378261D01*
X134469140Y-92378261D02*
X134373902Y-92473500D01*
X134373902Y-92473500D02*
X134231045Y-92521119D01*
X134231045Y-92521119D02*
X133992950Y-92521119D01*
X140097712Y-92448500D02*
X140240569Y-92496119D01*
X140240569Y-92496119D02*
X140478664Y-92496119D01*
X140478664Y-92496119D02*
X140573902Y-92448500D01*
X140573902Y-92448500D02*
X140621521Y-92400880D01*
X140621521Y-92400880D02*
X140669140Y-92305642D01*
X140669140Y-92305642D02*
X140669140Y-92210404D01*
X140669140Y-92210404D02*
X140621521Y-92115166D01*
X140621521Y-92115166D02*
X140573902Y-92067547D01*
X140573902Y-92067547D02*
X140478664Y-92019928D01*
X140478664Y-92019928D02*
X140288188Y-91972309D01*
X140288188Y-91972309D02*
X140192950Y-91924690D01*
X140192950Y-91924690D02*
X140145331Y-91877071D01*
X140145331Y-91877071D02*
X140097712Y-91781833D01*
X140097712Y-91781833D02*
X140097712Y-91686595D01*
X140097712Y-91686595D02*
X140145331Y-91591357D01*
X140145331Y-91591357D02*
X140192950Y-91543738D01*
X140192950Y-91543738D02*
X140288188Y-91496119D01*
X140288188Y-91496119D02*
X140526283Y-91496119D01*
X140526283Y-91496119D02*
X140669140Y-91543738D01*
X141097712Y-92496119D02*
X141097712Y-91496119D01*
X141097712Y-91496119D02*
X141335807Y-91496119D01*
X141335807Y-91496119D02*
X141478664Y-91543738D01*
X141478664Y-91543738D02*
X141573902Y-91638976D01*
X141573902Y-91638976D02*
X141621521Y-91734214D01*
X141621521Y-91734214D02*
X141669140Y-91924690D01*
X141669140Y-91924690D02*
X141669140Y-92067547D01*
X141669140Y-92067547D02*
X141621521Y-92258023D01*
X141621521Y-92258023D02*
X141573902Y-92353261D01*
X141573902Y-92353261D02*
X141478664Y-92448500D01*
X141478664Y-92448500D02*
X141335807Y-92496119D01*
X141335807Y-92496119D02*
X141097712Y-92496119D01*
X142050093Y-92210404D02*
X142526283Y-92210404D01*
X141954855Y-92496119D02*
X142288188Y-91496119D01*
X142288188Y-91496119D02*
X142621521Y-92496119D01*
X144597712Y-92448500D02*
X144740569Y-92496119D01*
X144740569Y-92496119D02*
X144978664Y-92496119D01*
X144978664Y-92496119D02*
X145073902Y-92448500D01*
X145073902Y-92448500D02*
X145121521Y-92400880D01*
X145121521Y-92400880D02*
X145169140Y-92305642D01*
X145169140Y-92305642D02*
X145169140Y-92210404D01*
X145169140Y-92210404D02*
X145121521Y-92115166D01*
X145121521Y-92115166D02*
X145073902Y-92067547D01*
X145073902Y-92067547D02*
X144978664Y-92019928D01*
X144978664Y-92019928D02*
X144788188Y-91972309D01*
X144788188Y-91972309D02*
X144692950Y-91924690D01*
X144692950Y-91924690D02*
X144645331Y-91877071D01*
X144645331Y-91877071D02*
X144597712Y-91781833D01*
X144597712Y-91781833D02*
X144597712Y-91686595D01*
X144597712Y-91686595D02*
X144645331Y-91591357D01*
X144645331Y-91591357D02*
X144692950Y-91543738D01*
X144692950Y-91543738D02*
X144788188Y-91496119D01*
X144788188Y-91496119D02*
X145026283Y-91496119D01*
X145026283Y-91496119D02*
X145169140Y-91543738D01*
X146169140Y-92400880D02*
X146121521Y-92448500D01*
X146121521Y-92448500D02*
X145978664Y-92496119D01*
X145978664Y-92496119D02*
X145883426Y-92496119D01*
X145883426Y-92496119D02*
X145740569Y-92448500D01*
X145740569Y-92448500D02*
X145645331Y-92353261D01*
X145645331Y-92353261D02*
X145597712Y-92258023D01*
X145597712Y-92258023D02*
X145550093Y-92067547D01*
X145550093Y-92067547D02*
X145550093Y-91924690D01*
X145550093Y-91924690D02*
X145597712Y-91734214D01*
X145597712Y-91734214D02*
X145645331Y-91638976D01*
X145645331Y-91638976D02*
X145740569Y-91543738D01*
X145740569Y-91543738D02*
X145883426Y-91496119D01*
X145883426Y-91496119D02*
X145978664Y-91496119D01*
X145978664Y-91496119D02*
X146121521Y-91543738D01*
X146121521Y-91543738D02*
X146169140Y-91591357D01*
X147073902Y-92496119D02*
X146597712Y-92496119D01*
X146597712Y-92496119D02*
X146597712Y-91496119D01*
X105418738Y-68155859D02*
X105371119Y-68251097D01*
X105371119Y-68251097D02*
X105371119Y-68393954D01*
X105371119Y-68393954D02*
X105418738Y-68536811D01*
X105418738Y-68536811D02*
X105513976Y-68632049D01*
X105513976Y-68632049D02*
X105609214Y-68679668D01*
X105609214Y-68679668D02*
X105799690Y-68727287D01*
X105799690Y-68727287D02*
X105942547Y-68727287D01*
X105942547Y-68727287D02*
X106133023Y-68679668D01*
X106133023Y-68679668D02*
X106228261Y-68632049D01*
X106228261Y-68632049D02*
X106323500Y-68536811D01*
X106323500Y-68536811D02*
X106371119Y-68393954D01*
X106371119Y-68393954D02*
X106371119Y-68298716D01*
X106371119Y-68298716D02*
X106323500Y-68155859D01*
X106323500Y-68155859D02*
X106275880Y-68108240D01*
X106275880Y-68108240D02*
X105942547Y-68108240D01*
X105942547Y-68108240D02*
X105942547Y-68298716D01*
X106371119Y-67679668D02*
X105371119Y-67679668D01*
X105371119Y-67679668D02*
X106371119Y-67108240D01*
X106371119Y-67108240D02*
X105371119Y-67108240D01*
X106371119Y-66632049D02*
X105371119Y-66632049D01*
X105371119Y-66632049D02*
X105371119Y-66393954D01*
X105371119Y-66393954D02*
X105418738Y-66251097D01*
X105418738Y-66251097D02*
X105513976Y-66155859D01*
X105513976Y-66155859D02*
X105609214Y-66108240D01*
X105609214Y-66108240D02*
X105799690Y-66060621D01*
X105799690Y-66060621D02*
X105942547Y-66060621D01*
X105942547Y-66060621D02*
X106133023Y-66108240D01*
X106133023Y-66108240D02*
X106228261Y-66155859D01*
X106228261Y-66155859D02*
X106323500Y-66251097D01*
X106323500Y-66251097D02*
X106371119Y-66393954D01*
X106371119Y-66393954D02*
X106371119Y-66632049D01*
X105371119Y-72203478D02*
X105371119Y-72679668D01*
X105371119Y-72679668D02*
X105847309Y-72727287D01*
X105847309Y-72727287D02*
X105799690Y-72679668D01*
X105799690Y-72679668D02*
X105752071Y-72584430D01*
X105752071Y-72584430D02*
X105752071Y-72346335D01*
X105752071Y-72346335D02*
X105799690Y-72251097D01*
X105799690Y-72251097D02*
X105847309Y-72203478D01*
X105847309Y-72203478D02*
X105942547Y-72155859D01*
X105942547Y-72155859D02*
X106180642Y-72155859D01*
X106180642Y-72155859D02*
X106275880Y-72203478D01*
X106275880Y-72203478D02*
X106323500Y-72251097D01*
X106323500Y-72251097D02*
X106371119Y-72346335D01*
X106371119Y-72346335D02*
X106371119Y-72584430D01*
X106371119Y-72584430D02*
X106323500Y-72679668D01*
X106323500Y-72679668D02*
X106275880Y-72727287D01*
X105371119Y-71870144D02*
X106371119Y-71536811D01*
X106371119Y-71536811D02*
X105371119Y-71203478D01*
X106823500Y-59227287D02*
X106871119Y-59084430D01*
X106871119Y-59084430D02*
X106871119Y-58846335D01*
X106871119Y-58846335D02*
X106823500Y-58751097D01*
X106823500Y-58751097D02*
X106775880Y-58703478D01*
X106775880Y-58703478D02*
X106680642Y-58655859D01*
X106680642Y-58655859D02*
X106585404Y-58655859D01*
X106585404Y-58655859D02*
X106490166Y-58703478D01*
X106490166Y-58703478D02*
X106442547Y-58751097D01*
X106442547Y-58751097D02*
X106394928Y-58846335D01*
X106394928Y-58846335D02*
X106347309Y-59036811D01*
X106347309Y-59036811D02*
X106299690Y-59132049D01*
X106299690Y-59132049D02*
X106252071Y-59179668D01*
X106252071Y-59179668D02*
X106156833Y-59227287D01*
X106156833Y-59227287D02*
X106061595Y-59227287D01*
X106061595Y-59227287D02*
X105966357Y-59179668D01*
X105966357Y-59179668D02*
X105918738Y-59132049D01*
X105918738Y-59132049D02*
X105871119Y-59036811D01*
X105871119Y-59036811D02*
X105871119Y-58798716D01*
X105871119Y-58798716D02*
X105918738Y-58655859D01*
X106775880Y-57655859D02*
X106823500Y-57703478D01*
X106823500Y-57703478D02*
X106871119Y-57846335D01*
X106871119Y-57846335D02*
X106871119Y-57941573D01*
X106871119Y-57941573D02*
X106823500Y-58084430D01*
X106823500Y-58084430D02*
X106728261Y-58179668D01*
X106728261Y-58179668D02*
X106633023Y-58227287D01*
X106633023Y-58227287D02*
X106442547Y-58274906D01*
X106442547Y-58274906D02*
X106299690Y-58274906D01*
X106299690Y-58274906D02*
X106109214Y-58227287D01*
X106109214Y-58227287D02*
X106013976Y-58179668D01*
X106013976Y-58179668D02*
X105918738Y-58084430D01*
X105918738Y-58084430D02*
X105871119Y-57941573D01*
X105871119Y-57941573D02*
X105871119Y-57846335D01*
X105871119Y-57846335D02*
X105918738Y-57703478D01*
X105918738Y-57703478D02*
X105966357Y-57655859D01*
X106871119Y-56751097D02*
X106871119Y-57227287D01*
X106871119Y-57227287D02*
X105871119Y-57227287D01*
X106823500Y-63227287D02*
X106871119Y-63084430D01*
X106871119Y-63084430D02*
X106871119Y-62846335D01*
X106871119Y-62846335D02*
X106823500Y-62751097D01*
X106823500Y-62751097D02*
X106775880Y-62703478D01*
X106775880Y-62703478D02*
X106680642Y-62655859D01*
X106680642Y-62655859D02*
X106585404Y-62655859D01*
X106585404Y-62655859D02*
X106490166Y-62703478D01*
X106490166Y-62703478D02*
X106442547Y-62751097D01*
X106442547Y-62751097D02*
X106394928Y-62846335D01*
X106394928Y-62846335D02*
X106347309Y-63036811D01*
X106347309Y-63036811D02*
X106299690Y-63132049D01*
X106299690Y-63132049D02*
X106252071Y-63179668D01*
X106252071Y-63179668D02*
X106156833Y-63227287D01*
X106156833Y-63227287D02*
X106061595Y-63227287D01*
X106061595Y-63227287D02*
X105966357Y-63179668D01*
X105966357Y-63179668D02*
X105918738Y-63132049D01*
X105918738Y-63132049D02*
X105871119Y-63036811D01*
X105871119Y-63036811D02*
X105871119Y-62798716D01*
X105871119Y-62798716D02*
X105918738Y-62655859D01*
X106871119Y-62227287D02*
X105871119Y-62227287D01*
X105871119Y-62227287D02*
X105871119Y-61989192D01*
X105871119Y-61989192D02*
X105918738Y-61846335D01*
X105918738Y-61846335D02*
X106013976Y-61751097D01*
X106013976Y-61751097D02*
X106109214Y-61703478D01*
X106109214Y-61703478D02*
X106299690Y-61655859D01*
X106299690Y-61655859D02*
X106442547Y-61655859D01*
X106442547Y-61655859D02*
X106633023Y-61703478D01*
X106633023Y-61703478D02*
X106728261Y-61751097D01*
X106728261Y-61751097D02*
X106823500Y-61846335D01*
X106823500Y-61846335D02*
X106871119Y-61989192D01*
X106871119Y-61989192D02*
X106871119Y-62227287D01*
X106585404Y-61274906D02*
X106585404Y-60798716D01*
X106871119Y-61370144D02*
X105871119Y-61036811D01*
X105871119Y-61036811D02*
X106871119Y-60703478D01*
X56152690Y-52153664D02*
X56105071Y-52296521D01*
X56105071Y-52296521D02*
X56057452Y-52344140D01*
X56057452Y-52344140D02*
X55962214Y-52391759D01*
X55962214Y-52391759D02*
X55819357Y-52391759D01*
X55819357Y-52391759D02*
X55724119Y-52344140D01*
X55724119Y-52344140D02*
X55676500Y-52296521D01*
X55676500Y-52296521D02*
X55628880Y-52201283D01*
X55628880Y-52201283D02*
X55628880Y-51820331D01*
X55628880Y-51820331D02*
X56628880Y-51820331D01*
X56628880Y-51820331D02*
X56628880Y-52153664D01*
X56628880Y-52153664D02*
X56581261Y-52248902D01*
X56581261Y-52248902D02*
X56533642Y-52296521D01*
X56533642Y-52296521D02*
X56438404Y-52344140D01*
X56438404Y-52344140D02*
X56343166Y-52344140D01*
X56343166Y-52344140D02*
X56247928Y-52296521D01*
X56247928Y-52296521D02*
X56200309Y-52248902D01*
X56200309Y-52248902D02*
X56152690Y-52153664D01*
X56152690Y-52153664D02*
X56152690Y-51820331D01*
X55914595Y-52772712D02*
X55914595Y-53248902D01*
X55628880Y-52677474D02*
X56628880Y-53010807D01*
X56628880Y-53010807D02*
X55628880Y-53344140D01*
X56628880Y-53534617D02*
X56628880Y-54106045D01*
X55628880Y-53820331D02*
X56628880Y-53820331D01*
X55914595Y-55772712D02*
X55914595Y-56248902D01*
X55628880Y-55677474D02*
X56628880Y-56010807D01*
X56628880Y-56010807D02*
X55628880Y-56344140D01*
X55724119Y-57248902D02*
X55676500Y-57201283D01*
X55676500Y-57201283D02*
X55628880Y-57058426D01*
X55628880Y-57058426D02*
X55628880Y-56963188D01*
X55628880Y-56963188D02*
X55676500Y-56820331D01*
X55676500Y-56820331D02*
X55771738Y-56725093D01*
X55771738Y-56725093D02*
X55866976Y-56677474D01*
X55866976Y-56677474D02*
X56057452Y-56629855D01*
X56057452Y-56629855D02*
X56200309Y-56629855D01*
X56200309Y-56629855D02*
X56390785Y-56677474D01*
X56390785Y-56677474D02*
X56486023Y-56725093D01*
X56486023Y-56725093D02*
X56581261Y-56820331D01*
X56581261Y-56820331D02*
X56628880Y-56963188D01*
X56628880Y-56963188D02*
X56628880Y-57058426D01*
X56628880Y-57058426D02*
X56581261Y-57201283D01*
X56581261Y-57201283D02*
X56533642Y-57248902D01*
X55724119Y-58248902D02*
X55676500Y-58201283D01*
X55676500Y-58201283D02*
X55628880Y-58058426D01*
X55628880Y-58058426D02*
X55628880Y-57963188D01*
X55628880Y-57963188D02*
X55676500Y-57820331D01*
X55676500Y-57820331D02*
X55771738Y-57725093D01*
X55771738Y-57725093D02*
X55866976Y-57677474D01*
X55866976Y-57677474D02*
X56057452Y-57629855D01*
X56057452Y-57629855D02*
X56200309Y-57629855D01*
X56200309Y-57629855D02*
X56390785Y-57677474D01*
X56390785Y-57677474D02*
X56486023Y-57725093D01*
X56486023Y-57725093D02*
X56581261Y-57820331D01*
X56581261Y-57820331D02*
X56628880Y-57963188D01*
X56628880Y-57963188D02*
X56628880Y-58058426D01*
X56628880Y-58058426D02*
X56581261Y-58201283D01*
X56581261Y-58201283D02*
X56533642Y-58248902D01*
X55628880Y-62320331D02*
X56628880Y-62320331D01*
X56581261Y-63320330D02*
X56628880Y-63225092D01*
X56628880Y-63225092D02*
X56628880Y-63082235D01*
X56628880Y-63082235D02*
X56581261Y-62939378D01*
X56581261Y-62939378D02*
X56486023Y-62844140D01*
X56486023Y-62844140D02*
X56390785Y-62796521D01*
X56390785Y-62796521D02*
X56200309Y-62748902D01*
X56200309Y-62748902D02*
X56057452Y-62748902D01*
X56057452Y-62748902D02*
X55866976Y-62796521D01*
X55866976Y-62796521D02*
X55771738Y-62844140D01*
X55771738Y-62844140D02*
X55676500Y-62939378D01*
X55676500Y-62939378D02*
X55628880Y-63082235D01*
X55628880Y-63082235D02*
X55628880Y-63177473D01*
X55628880Y-63177473D02*
X55676500Y-63320330D01*
X55676500Y-63320330D02*
X55724119Y-63367949D01*
X55724119Y-63367949D02*
X56057452Y-63367949D01*
X56057452Y-63367949D02*
X56057452Y-63177473D01*
X55628880Y-63796521D02*
X56628880Y-63796521D01*
X56628880Y-63796521D02*
X55628880Y-64367949D01*
X55628880Y-64367949D02*
X56628880Y-64367949D01*
X56581261Y-66844140D02*
X56628880Y-66748902D01*
X56628880Y-66748902D02*
X56628880Y-66606045D01*
X56628880Y-66606045D02*
X56581261Y-66463188D01*
X56581261Y-66463188D02*
X56486023Y-66367950D01*
X56486023Y-66367950D02*
X56390785Y-66320331D01*
X56390785Y-66320331D02*
X56200309Y-66272712D01*
X56200309Y-66272712D02*
X56057452Y-66272712D01*
X56057452Y-66272712D02*
X55866976Y-66320331D01*
X55866976Y-66320331D02*
X55771738Y-66367950D01*
X55771738Y-66367950D02*
X55676500Y-66463188D01*
X55676500Y-66463188D02*
X55628880Y-66606045D01*
X55628880Y-66606045D02*
X55628880Y-66701283D01*
X55628880Y-66701283D02*
X55676500Y-66844140D01*
X55676500Y-66844140D02*
X55724119Y-66891759D01*
X55724119Y-66891759D02*
X56057452Y-66891759D01*
X56057452Y-66891759D02*
X56057452Y-66701283D01*
X55628880Y-67320331D02*
X56628880Y-67320331D01*
X56628880Y-67320331D02*
X55628880Y-67891759D01*
X55628880Y-67891759D02*
X56628880Y-67891759D01*
X55628880Y-68367950D02*
X56628880Y-68367950D01*
X56628880Y-68367950D02*
X56628880Y-68606045D01*
X56628880Y-68606045D02*
X56581261Y-68748902D01*
X56581261Y-68748902D02*
X56486023Y-68844140D01*
X56486023Y-68844140D02*
X56390785Y-68891759D01*
X56390785Y-68891759D02*
X56200309Y-68939378D01*
X56200309Y-68939378D02*
X56057452Y-68939378D01*
X56057452Y-68939378D02*
X55866976Y-68891759D01*
X55866976Y-68891759D02*
X55771738Y-68844140D01*
X55771738Y-68844140D02*
X55676500Y-68748902D01*
X55676500Y-68748902D02*
X55628880Y-68606045D01*
X55628880Y-68606045D02*
X55628880Y-68367950D01*
D12*
X147800828Y-40445489D02*
X146300828Y-40445489D01*
X146300828Y-40445489D02*
X146300828Y-40088346D01*
X146300828Y-40088346D02*
X146372257Y-39874060D01*
X146372257Y-39874060D02*
X146515114Y-39731203D01*
X146515114Y-39731203D02*
X146657971Y-39659774D01*
X146657971Y-39659774D02*
X146943685Y-39588346D01*
X146943685Y-39588346D02*
X147157971Y-39588346D01*
X147157971Y-39588346D02*
X147443685Y-39659774D01*
X147443685Y-39659774D02*
X147586542Y-39731203D01*
X147586542Y-39731203D02*
X147729400Y-39874060D01*
X147729400Y-39874060D02*
X147800828Y-40088346D01*
X147800828Y-40088346D02*
X147800828Y-40445489D01*
X147657971Y-38088346D02*
X147729400Y-38159774D01*
X147729400Y-38159774D02*
X147800828Y-38374060D01*
X147800828Y-38374060D02*
X147800828Y-38516917D01*
X147800828Y-38516917D02*
X147729400Y-38731203D01*
X147729400Y-38731203D02*
X147586542Y-38874060D01*
X147586542Y-38874060D02*
X147443685Y-38945489D01*
X147443685Y-38945489D02*
X147157971Y-39016917D01*
X147157971Y-39016917D02*
X146943685Y-39016917D01*
X146943685Y-39016917D02*
X146657971Y-38945489D01*
X146657971Y-38945489D02*
X146515114Y-38874060D01*
X146515114Y-38874060D02*
X146372257Y-38731203D01*
X146372257Y-38731203D02*
X146300828Y-38516917D01*
X146300828Y-38516917D02*
X146300828Y-38374060D01*
X146300828Y-38374060D02*
X146372257Y-38159774D01*
X146372257Y-38159774D02*
X146443685Y-38088346D01*
X147943685Y-37802632D02*
X147943685Y-36659774D01*
X147800828Y-36302632D02*
X146300828Y-36302632D01*
X147800828Y-35588346D02*
X146300828Y-35588346D01*
X146300828Y-35588346D02*
X147800828Y-34731203D01*
X147800828Y-34731203D02*
X146300828Y-34731203D01*
X58984885Y-42554510D02*
X58984885Y-43054510D01*
X58199171Y-43268796D02*
X58199171Y-42554510D01*
X58199171Y-42554510D02*
X59699171Y-42554510D01*
X59699171Y-42554510D02*
X59699171Y-43268796D01*
X58342028Y-44768796D02*
X58270600Y-44697368D01*
X58270600Y-44697368D02*
X58199171Y-44483082D01*
X58199171Y-44483082D02*
X58199171Y-44340225D01*
X58199171Y-44340225D02*
X58270600Y-44125939D01*
X58270600Y-44125939D02*
X58413457Y-43983082D01*
X58413457Y-43983082D02*
X58556314Y-43911653D01*
X58556314Y-43911653D02*
X58842028Y-43840225D01*
X58842028Y-43840225D02*
X59056314Y-43840225D01*
X59056314Y-43840225D02*
X59342028Y-43911653D01*
X59342028Y-43911653D02*
X59484885Y-43983082D01*
X59484885Y-43983082D02*
X59627742Y-44125939D01*
X59627742Y-44125939D02*
X59699171Y-44340225D01*
X59699171Y-44340225D02*
X59699171Y-44483082D01*
X59699171Y-44483082D02*
X59627742Y-44697368D01*
X59627742Y-44697368D02*
X59556314Y-44768796D01*
X59699171Y-45411653D02*
X58484885Y-45411653D01*
X58484885Y-45411653D02*
X58342028Y-45483082D01*
X58342028Y-45483082D02*
X58270600Y-45554511D01*
X58270600Y-45554511D02*
X58199171Y-45697368D01*
X58199171Y-45697368D02*
X58199171Y-45983082D01*
X58199171Y-45983082D02*
X58270600Y-46125939D01*
X58270600Y-46125939D02*
X58342028Y-46197368D01*
X58342028Y-46197368D02*
X58484885Y-46268796D01*
X58484885Y-46268796D02*
X59699171Y-46268796D01*
X58056314Y-46625940D02*
X58056314Y-47768797D01*
X58199171Y-48125939D02*
X59699171Y-48125939D01*
X58199171Y-48840225D02*
X59699171Y-48840225D01*
X59699171Y-48840225D02*
X58199171Y-49697368D01*
X58199171Y-49697368D02*
X59699171Y-49697368D01*
D13*
X116954819Y-70333333D02*
X117669104Y-70333333D01*
X117669104Y-70333333D02*
X117811961Y-70380952D01*
X117811961Y-70380952D02*
X117907200Y-70476190D01*
X117907200Y-70476190D02*
X117954819Y-70619047D01*
X117954819Y-70619047D02*
X117954819Y-70714285D01*
X117954819Y-69809523D02*
X117954819Y-69619047D01*
X117954819Y-69619047D02*
X117907200Y-69523809D01*
X117907200Y-69523809D02*
X117859580Y-69476190D01*
X117859580Y-69476190D02*
X117716723Y-69380952D01*
X117716723Y-69380952D02*
X117526247Y-69333333D01*
X117526247Y-69333333D02*
X117145295Y-69333333D01*
X117145295Y-69333333D02*
X117050057Y-69380952D01*
X117050057Y-69380952D02*
X117002438Y-69428571D01*
X117002438Y-69428571D02*
X116954819Y-69523809D01*
X116954819Y-69523809D02*
X116954819Y-69714285D01*
X116954819Y-69714285D02*
X117002438Y-69809523D01*
X117002438Y-69809523D02*
X117050057Y-69857142D01*
X117050057Y-69857142D02*
X117145295Y-69904761D01*
X117145295Y-69904761D02*
X117383390Y-69904761D01*
X117383390Y-69904761D02*
X117478628Y-69857142D01*
X117478628Y-69857142D02*
X117526247Y-69809523D01*
X117526247Y-69809523D02*
X117573866Y-69714285D01*
X117573866Y-69714285D02*
X117573866Y-69523809D01*
X117573866Y-69523809D02*
X117526247Y-69428571D01*
X117526247Y-69428571D02*
X117478628Y-69380952D01*
X117478628Y-69380952D02*
X117383390Y-69333333D01*
X125364761Y-37150057D02*
X125269523Y-37102438D01*
X125269523Y-37102438D02*
X125174285Y-37007200D01*
X125174285Y-37007200D02*
X125031428Y-36864342D01*
X125031428Y-36864342D02*
X124936190Y-36816723D01*
X124936190Y-36816723D02*
X124840952Y-36816723D01*
X124888571Y-37054819D02*
X124793333Y-37007200D01*
X124793333Y-37007200D02*
X124698095Y-36911961D01*
X124698095Y-36911961D02*
X124650476Y-36721485D01*
X124650476Y-36721485D02*
X124650476Y-36388152D01*
X124650476Y-36388152D02*
X124698095Y-36197676D01*
X124698095Y-36197676D02*
X124793333Y-36102438D01*
X124793333Y-36102438D02*
X124888571Y-36054819D01*
X124888571Y-36054819D02*
X125079047Y-36054819D01*
X125079047Y-36054819D02*
X125174285Y-36102438D01*
X125174285Y-36102438D02*
X125269523Y-36197676D01*
X125269523Y-36197676D02*
X125317142Y-36388152D01*
X125317142Y-36388152D02*
X125317142Y-36721485D01*
X125317142Y-36721485D02*
X125269523Y-36911961D01*
X125269523Y-36911961D02*
X125174285Y-37007200D01*
X125174285Y-37007200D02*
X125079047Y-37054819D01*
X125079047Y-37054819D02*
X124888571Y-37054819D01*
X125650476Y-36054819D02*
X126269523Y-36054819D01*
X126269523Y-36054819D02*
X125936190Y-36435771D01*
X125936190Y-36435771D02*
X126079047Y-36435771D01*
X126079047Y-36435771D02*
X126174285Y-36483390D01*
X126174285Y-36483390D02*
X126221904Y-36531009D01*
X126221904Y-36531009D02*
X126269523Y-36626247D01*
X126269523Y-36626247D02*
X126269523Y-36864342D01*
X126269523Y-36864342D02*
X126221904Y-36959580D01*
X126221904Y-36959580D02*
X126174285Y-37007200D01*
X126174285Y-37007200D02*
X126079047Y-37054819D01*
X126079047Y-37054819D02*
X125793333Y-37054819D01*
X125793333Y-37054819D02*
X125698095Y-37007200D01*
X125698095Y-37007200D02*
X125650476Y-36959580D01*
X117154819Y-60733333D02*
X117869104Y-60733333D01*
X117869104Y-60733333D02*
X118011961Y-60780952D01*
X118011961Y-60780952D02*
X118107200Y-60876190D01*
X118107200Y-60876190D02*
X118154819Y-61019047D01*
X118154819Y-61019047D02*
X118154819Y-61114285D01*
X117583390Y-60114285D02*
X117535771Y-60209523D01*
X117535771Y-60209523D02*
X117488152Y-60257142D01*
X117488152Y-60257142D02*
X117392914Y-60304761D01*
X117392914Y-60304761D02*
X117345295Y-60304761D01*
X117345295Y-60304761D02*
X117250057Y-60257142D01*
X117250057Y-60257142D02*
X117202438Y-60209523D01*
X117202438Y-60209523D02*
X117154819Y-60114285D01*
X117154819Y-60114285D02*
X117154819Y-59923809D01*
X117154819Y-59923809D02*
X117202438Y-59828571D01*
X117202438Y-59828571D02*
X117250057Y-59780952D01*
X117250057Y-59780952D02*
X117345295Y-59733333D01*
X117345295Y-59733333D02*
X117392914Y-59733333D01*
X117392914Y-59733333D02*
X117488152Y-59780952D01*
X117488152Y-59780952D02*
X117535771Y-59828571D01*
X117535771Y-59828571D02*
X117583390Y-59923809D01*
X117583390Y-59923809D02*
X117583390Y-60114285D01*
X117583390Y-60114285D02*
X117631009Y-60209523D01*
X117631009Y-60209523D02*
X117678628Y-60257142D01*
X117678628Y-60257142D02*
X117773866Y-60304761D01*
X117773866Y-60304761D02*
X117964342Y-60304761D01*
X117964342Y-60304761D02*
X118059580Y-60257142D01*
X118059580Y-60257142D02*
X118107200Y-60209523D01*
X118107200Y-60209523D02*
X118154819Y-60114285D01*
X118154819Y-60114285D02*
X118154819Y-59923809D01*
X118154819Y-59923809D02*
X118107200Y-59828571D01*
X118107200Y-59828571D02*
X118059580Y-59780952D01*
X118059580Y-59780952D02*
X117964342Y-59733333D01*
X117964342Y-59733333D02*
X117773866Y-59733333D01*
X117773866Y-59733333D02*
X117678628Y-59780952D01*
X117678628Y-59780952D02*
X117631009Y-59828571D01*
X117631009Y-59828571D02*
X117583390Y-59923809D01*
X86734819Y-85086666D02*
X86258628Y-85419999D01*
X86734819Y-85658094D02*
X85734819Y-85658094D01*
X85734819Y-85658094D02*
X85734819Y-85277142D01*
X85734819Y-85277142D02*
X85782438Y-85181904D01*
X85782438Y-85181904D02*
X85830057Y-85134285D01*
X85830057Y-85134285D02*
X85925295Y-85086666D01*
X85925295Y-85086666D02*
X86068152Y-85086666D01*
X86068152Y-85086666D02*
X86163390Y-85134285D01*
X86163390Y-85134285D02*
X86211009Y-85181904D01*
X86211009Y-85181904D02*
X86258628Y-85277142D01*
X86258628Y-85277142D02*
X86258628Y-85658094D01*
X85734819Y-84229523D02*
X85734819Y-84419999D01*
X85734819Y-84419999D02*
X85782438Y-84515237D01*
X85782438Y-84515237D02*
X85830057Y-84562856D01*
X85830057Y-84562856D02*
X85972914Y-84658094D01*
X85972914Y-84658094D02*
X86163390Y-84705713D01*
X86163390Y-84705713D02*
X86544342Y-84705713D01*
X86544342Y-84705713D02*
X86639580Y-84658094D01*
X86639580Y-84658094D02*
X86687200Y-84610475D01*
X86687200Y-84610475D02*
X86734819Y-84515237D01*
X86734819Y-84515237D02*
X86734819Y-84324761D01*
X86734819Y-84324761D02*
X86687200Y-84229523D01*
X86687200Y-84229523D02*
X86639580Y-84181904D01*
X86639580Y-84181904D02*
X86544342Y-84134285D01*
X86544342Y-84134285D02*
X86306247Y-84134285D01*
X86306247Y-84134285D02*
X86211009Y-84181904D01*
X86211009Y-84181904D02*
X86163390Y-84229523D01*
X86163390Y-84229523D02*
X86115771Y-84324761D01*
X86115771Y-84324761D02*
X86115771Y-84515237D01*
X86115771Y-84515237D02*
X86163390Y-84610475D01*
X86163390Y-84610475D02*
X86211009Y-84658094D01*
X86211009Y-84658094D02*
X86306247Y-84705713D01*
X81734819Y-85086666D02*
X81258628Y-85419999D01*
X81734819Y-85658094D02*
X80734819Y-85658094D01*
X80734819Y-85658094D02*
X80734819Y-85277142D01*
X80734819Y-85277142D02*
X80782438Y-85181904D01*
X80782438Y-85181904D02*
X80830057Y-85134285D01*
X80830057Y-85134285D02*
X80925295Y-85086666D01*
X80925295Y-85086666D02*
X81068152Y-85086666D01*
X81068152Y-85086666D02*
X81163390Y-85134285D01*
X81163390Y-85134285D02*
X81211009Y-85181904D01*
X81211009Y-85181904D02*
X81258628Y-85277142D01*
X81258628Y-85277142D02*
X81258628Y-85658094D01*
X80734819Y-84181904D02*
X80734819Y-84658094D01*
X80734819Y-84658094D02*
X81211009Y-84705713D01*
X81211009Y-84705713D02*
X81163390Y-84658094D01*
X81163390Y-84658094D02*
X81115771Y-84562856D01*
X81115771Y-84562856D02*
X81115771Y-84324761D01*
X81115771Y-84324761D02*
X81163390Y-84229523D01*
X81163390Y-84229523D02*
X81211009Y-84181904D01*
X81211009Y-84181904D02*
X81306247Y-84134285D01*
X81306247Y-84134285D02*
X81544342Y-84134285D01*
X81544342Y-84134285D02*
X81639580Y-84181904D01*
X81639580Y-84181904D02*
X81687200Y-84229523D01*
X81687200Y-84229523D02*
X81734819Y-84324761D01*
X81734819Y-84324761D02*
X81734819Y-84562856D01*
X81734819Y-84562856D02*
X81687200Y-84658094D01*
X81687200Y-84658094D02*
X81639580Y-84705713D01*
X97059819Y-85011666D02*
X96583628Y-85344999D01*
X97059819Y-85583094D02*
X96059819Y-85583094D01*
X96059819Y-85583094D02*
X96059819Y-85202142D01*
X96059819Y-85202142D02*
X96107438Y-85106904D01*
X96107438Y-85106904D02*
X96155057Y-85059285D01*
X96155057Y-85059285D02*
X96250295Y-85011666D01*
X96250295Y-85011666D02*
X96393152Y-85011666D01*
X96393152Y-85011666D02*
X96488390Y-85059285D01*
X96488390Y-85059285D02*
X96536009Y-85106904D01*
X96536009Y-85106904D02*
X96583628Y-85202142D01*
X96583628Y-85202142D02*
X96583628Y-85583094D01*
X96488390Y-84440237D02*
X96440771Y-84535475D01*
X96440771Y-84535475D02*
X96393152Y-84583094D01*
X96393152Y-84583094D02*
X96297914Y-84630713D01*
X96297914Y-84630713D02*
X96250295Y-84630713D01*
X96250295Y-84630713D02*
X96155057Y-84583094D01*
X96155057Y-84583094D02*
X96107438Y-84535475D01*
X96107438Y-84535475D02*
X96059819Y-84440237D01*
X96059819Y-84440237D02*
X96059819Y-84249761D01*
X96059819Y-84249761D02*
X96107438Y-84154523D01*
X96107438Y-84154523D02*
X96155057Y-84106904D01*
X96155057Y-84106904D02*
X96250295Y-84059285D01*
X96250295Y-84059285D02*
X96297914Y-84059285D01*
X96297914Y-84059285D02*
X96393152Y-84106904D01*
X96393152Y-84106904D02*
X96440771Y-84154523D01*
X96440771Y-84154523D02*
X96488390Y-84249761D01*
X96488390Y-84249761D02*
X96488390Y-84440237D01*
X96488390Y-84440237D02*
X96536009Y-84535475D01*
X96536009Y-84535475D02*
X96583628Y-84583094D01*
X96583628Y-84583094D02*
X96678866Y-84630713D01*
X96678866Y-84630713D02*
X96869342Y-84630713D01*
X96869342Y-84630713D02*
X96964580Y-84583094D01*
X96964580Y-84583094D02*
X97012200Y-84535475D01*
X97012200Y-84535475D02*
X97059819Y-84440237D01*
X97059819Y-84440237D02*
X97059819Y-84249761D01*
X97059819Y-84249761D02*
X97012200Y-84154523D01*
X97012200Y-84154523D02*
X96964580Y-84106904D01*
X96964580Y-84106904D02*
X96869342Y-84059285D01*
X96869342Y-84059285D02*
X96678866Y-84059285D01*
X96678866Y-84059285D02*
X96583628Y-84106904D01*
X96583628Y-84106904D02*
X96536009Y-84154523D01*
X96536009Y-84154523D02*
X96488390Y-84249761D01*
X97795105Y-66016719D02*
X97795105Y-65016719D01*
X97795105Y-65016719D02*
X98033200Y-65016719D01*
X98033200Y-65016719D02*
X98176057Y-65064338D01*
X98176057Y-65064338D02*
X98271295Y-65159576D01*
X98271295Y-65159576D02*
X98318914Y-65254814D01*
X98318914Y-65254814D02*
X98366533Y-65445290D01*
X98366533Y-65445290D02*
X98366533Y-65588147D01*
X98366533Y-65588147D02*
X98318914Y-65778623D01*
X98318914Y-65778623D02*
X98271295Y-65873861D01*
X98271295Y-65873861D02*
X98176057Y-65969100D01*
X98176057Y-65969100D02*
X98033200Y-66016719D01*
X98033200Y-66016719D02*
X97795105Y-66016719D01*
X98699867Y-65016719D02*
X99318914Y-65016719D01*
X99318914Y-65016719D02*
X98985581Y-65397671D01*
X98985581Y-65397671D02*
X99128438Y-65397671D01*
X99128438Y-65397671D02*
X99223676Y-65445290D01*
X99223676Y-65445290D02*
X99271295Y-65492909D01*
X99271295Y-65492909D02*
X99318914Y-65588147D01*
X99318914Y-65588147D02*
X99318914Y-65826242D01*
X99318914Y-65826242D02*
X99271295Y-65921480D01*
X99271295Y-65921480D02*
X99223676Y-65969100D01*
X99223676Y-65969100D02*
X99128438Y-66016719D01*
X99128438Y-66016719D02*
X98842724Y-66016719D01*
X98842724Y-66016719D02*
X98747486Y-65969100D01*
X98747486Y-65969100D02*
X98699867Y-65921480D01*
X74531905Y-65994819D02*
X74531905Y-64994819D01*
X74531905Y-64994819D02*
X74770000Y-64994819D01*
X74770000Y-64994819D02*
X74912857Y-65042438D01*
X74912857Y-65042438D02*
X75008095Y-65137676D01*
X75008095Y-65137676D02*
X75055714Y-65232914D01*
X75055714Y-65232914D02*
X75103333Y-65423390D01*
X75103333Y-65423390D02*
X75103333Y-65566247D01*
X75103333Y-65566247D02*
X75055714Y-65756723D01*
X75055714Y-65756723D02*
X75008095Y-65851961D01*
X75008095Y-65851961D02*
X74912857Y-65947200D01*
X74912857Y-65947200D02*
X74770000Y-65994819D01*
X74770000Y-65994819D02*
X74531905Y-65994819D01*
X76055714Y-65994819D02*
X75484286Y-65994819D01*
X75770000Y-65994819D02*
X75770000Y-64994819D01*
X75770000Y-64994819D02*
X75674762Y-65137676D01*
X75674762Y-65137676D02*
X75579524Y-65232914D01*
X75579524Y-65232914D02*
X75484286Y-65280533D01*
X67534819Y-55363333D02*
X68249104Y-55363333D01*
X68249104Y-55363333D02*
X68391961Y-55410952D01*
X68391961Y-55410952D02*
X68487200Y-55506190D01*
X68487200Y-55506190D02*
X68534819Y-55649047D01*
X68534819Y-55649047D02*
X68534819Y-55744285D01*
X67630057Y-54934761D02*
X67582438Y-54887142D01*
X67582438Y-54887142D02*
X67534819Y-54791904D01*
X67534819Y-54791904D02*
X67534819Y-54553809D01*
X67534819Y-54553809D02*
X67582438Y-54458571D01*
X67582438Y-54458571D02*
X67630057Y-54410952D01*
X67630057Y-54410952D02*
X67725295Y-54363333D01*
X67725295Y-54363333D02*
X67820533Y-54363333D01*
X67820533Y-54363333D02*
X67963390Y-54410952D01*
X67963390Y-54410952D02*
X68534819Y-54982380D01*
X68534819Y-54982380D02*
X68534819Y-54363333D01*
X114184819Y-85472857D02*
X113708628Y-85806190D01*
X114184819Y-86044285D02*
X113184819Y-86044285D01*
X113184819Y-86044285D02*
X113184819Y-85663333D01*
X113184819Y-85663333D02*
X113232438Y-85568095D01*
X113232438Y-85568095D02*
X113280057Y-85520476D01*
X113280057Y-85520476D02*
X113375295Y-85472857D01*
X113375295Y-85472857D02*
X113518152Y-85472857D01*
X113518152Y-85472857D02*
X113613390Y-85520476D01*
X113613390Y-85520476D02*
X113661009Y-85568095D01*
X113661009Y-85568095D02*
X113708628Y-85663333D01*
X113708628Y-85663333D02*
X113708628Y-86044285D01*
X114184819Y-84520476D02*
X114184819Y-85091904D01*
X114184819Y-84806190D02*
X113184819Y-84806190D01*
X113184819Y-84806190D02*
X113327676Y-84901428D01*
X113327676Y-84901428D02*
X113422914Y-84996666D01*
X113422914Y-84996666D02*
X113470533Y-85091904D01*
X114184819Y-83568095D02*
X114184819Y-84139523D01*
X114184819Y-83853809D02*
X113184819Y-83853809D01*
X113184819Y-83853809D02*
X113327676Y-83949047D01*
X113327676Y-83949047D02*
X113422914Y-84044285D01*
X113422914Y-84044285D02*
X113470533Y-84139523D01*
X66636666Y-39534819D02*
X66636666Y-40249104D01*
X66636666Y-40249104D02*
X66589047Y-40391961D01*
X66589047Y-40391961D02*
X66493809Y-40487200D01*
X66493809Y-40487200D02*
X66350952Y-40534819D01*
X66350952Y-40534819D02*
X66255714Y-40534819D01*
X67541428Y-39868152D02*
X67541428Y-40534819D01*
X67303333Y-39487200D02*
X67065238Y-40201485D01*
X67065238Y-40201485D02*
X67684285Y-40201485D01*
X102761905Y-44734819D02*
X102761905Y-43734819D01*
X102761905Y-43734819D02*
X103000000Y-43734819D01*
X103000000Y-43734819D02*
X103142857Y-43782438D01*
X103142857Y-43782438D02*
X103238095Y-43877676D01*
X103238095Y-43877676D02*
X103285714Y-43972914D01*
X103285714Y-43972914D02*
X103333333Y-44163390D01*
X103333333Y-44163390D02*
X103333333Y-44306247D01*
X103333333Y-44306247D02*
X103285714Y-44496723D01*
X103285714Y-44496723D02*
X103238095Y-44591961D01*
X103238095Y-44591961D02*
X103142857Y-44687200D01*
X103142857Y-44687200D02*
X103000000Y-44734819D01*
X103000000Y-44734819D02*
X102761905Y-44734819D01*
X104238095Y-43734819D02*
X103761905Y-43734819D01*
X103761905Y-43734819D02*
X103714286Y-44211009D01*
X103714286Y-44211009D02*
X103761905Y-44163390D01*
X103761905Y-44163390D02*
X103857143Y-44115771D01*
X103857143Y-44115771D02*
X104095238Y-44115771D01*
X104095238Y-44115771D02*
X104190476Y-44163390D01*
X104190476Y-44163390D02*
X104238095Y-44211009D01*
X104238095Y-44211009D02*
X104285714Y-44306247D01*
X104285714Y-44306247D02*
X104285714Y-44544342D01*
X104285714Y-44544342D02*
X104238095Y-44639580D01*
X104238095Y-44639580D02*
X104190476Y-44687200D01*
X104190476Y-44687200D02*
X104095238Y-44734819D01*
X104095238Y-44734819D02*
X103857143Y-44734819D01*
X103857143Y-44734819D02*
X103761905Y-44687200D01*
X103761905Y-44687200D02*
X103714286Y-44639580D01*
X95618095Y-45854819D02*
X95618095Y-44854819D01*
X96189523Y-45854819D02*
X95760952Y-45283390D01*
X96189523Y-44854819D02*
X95618095Y-45426247D01*
X65234819Y-85086666D02*
X64758628Y-85419999D01*
X65234819Y-85658094D02*
X64234819Y-85658094D01*
X64234819Y-85658094D02*
X64234819Y-85277142D01*
X64234819Y-85277142D02*
X64282438Y-85181904D01*
X64282438Y-85181904D02*
X64330057Y-85134285D01*
X64330057Y-85134285D02*
X64425295Y-85086666D01*
X64425295Y-85086666D02*
X64568152Y-85086666D01*
X64568152Y-85086666D02*
X64663390Y-85134285D01*
X64663390Y-85134285D02*
X64711009Y-85181904D01*
X64711009Y-85181904D02*
X64758628Y-85277142D01*
X64758628Y-85277142D02*
X64758628Y-85658094D01*
X64330057Y-84705713D02*
X64282438Y-84658094D01*
X64282438Y-84658094D02*
X64234819Y-84562856D01*
X64234819Y-84562856D02*
X64234819Y-84324761D01*
X64234819Y-84324761D02*
X64282438Y-84229523D01*
X64282438Y-84229523D02*
X64330057Y-84181904D01*
X64330057Y-84181904D02*
X64425295Y-84134285D01*
X64425295Y-84134285D02*
X64520533Y-84134285D01*
X64520533Y-84134285D02*
X64663390Y-84181904D01*
X64663390Y-84181904D02*
X65234819Y-84753332D01*
X65234819Y-84753332D02*
X65234819Y-84134285D01*
X80761905Y-44734819D02*
X80761905Y-43734819D01*
X80761905Y-43734819D02*
X81000000Y-43734819D01*
X81000000Y-43734819D02*
X81142857Y-43782438D01*
X81142857Y-43782438D02*
X81238095Y-43877676D01*
X81238095Y-43877676D02*
X81285714Y-43972914D01*
X81285714Y-43972914D02*
X81333333Y-44163390D01*
X81333333Y-44163390D02*
X81333333Y-44306247D01*
X81333333Y-44306247D02*
X81285714Y-44496723D01*
X81285714Y-44496723D02*
X81238095Y-44591961D01*
X81238095Y-44591961D02*
X81142857Y-44687200D01*
X81142857Y-44687200D02*
X81000000Y-44734819D01*
X81000000Y-44734819D02*
X80761905Y-44734819D01*
X82190476Y-44068152D02*
X82190476Y-44734819D01*
X81952381Y-43687200D02*
X81714286Y-44401485D01*
X81714286Y-44401485D02*
X82333333Y-44401485D01*
X73618095Y-45854819D02*
X73618095Y-44854819D01*
X74189523Y-45854819D02*
X73760952Y-45283390D01*
X74189523Y-44854819D02*
X73618095Y-45426247D01*
X60234819Y-85086666D02*
X59758628Y-85419999D01*
X60234819Y-85658094D02*
X59234819Y-85658094D01*
X59234819Y-85658094D02*
X59234819Y-85277142D01*
X59234819Y-85277142D02*
X59282438Y-85181904D01*
X59282438Y-85181904D02*
X59330057Y-85134285D01*
X59330057Y-85134285D02*
X59425295Y-85086666D01*
X59425295Y-85086666D02*
X59568152Y-85086666D01*
X59568152Y-85086666D02*
X59663390Y-85134285D01*
X59663390Y-85134285D02*
X59711009Y-85181904D01*
X59711009Y-85181904D02*
X59758628Y-85277142D01*
X59758628Y-85277142D02*
X59758628Y-85658094D01*
X60234819Y-84134285D02*
X60234819Y-84705713D01*
X60234819Y-84419999D02*
X59234819Y-84419999D01*
X59234819Y-84419999D02*
X59377676Y-84515237D01*
X59377676Y-84515237D02*
X59472914Y-84610475D01*
X59472914Y-84610475D02*
X59520533Y-84705713D01*
X118984819Y-85472857D02*
X118508628Y-85806190D01*
X118984819Y-86044285D02*
X117984819Y-86044285D01*
X117984819Y-86044285D02*
X117984819Y-85663333D01*
X117984819Y-85663333D02*
X118032438Y-85568095D01*
X118032438Y-85568095D02*
X118080057Y-85520476D01*
X118080057Y-85520476D02*
X118175295Y-85472857D01*
X118175295Y-85472857D02*
X118318152Y-85472857D01*
X118318152Y-85472857D02*
X118413390Y-85520476D01*
X118413390Y-85520476D02*
X118461009Y-85568095D01*
X118461009Y-85568095D02*
X118508628Y-85663333D01*
X118508628Y-85663333D02*
X118508628Y-86044285D01*
X118984819Y-84520476D02*
X118984819Y-85091904D01*
X118984819Y-84806190D02*
X117984819Y-84806190D01*
X117984819Y-84806190D02*
X118127676Y-84901428D01*
X118127676Y-84901428D02*
X118222914Y-84996666D01*
X118222914Y-84996666D02*
X118270533Y-85091904D01*
X118080057Y-84139523D02*
X118032438Y-84091904D01*
X118032438Y-84091904D02*
X117984819Y-83996666D01*
X117984819Y-83996666D02*
X117984819Y-83758571D01*
X117984819Y-83758571D02*
X118032438Y-83663333D01*
X118032438Y-83663333D02*
X118080057Y-83615714D01*
X118080057Y-83615714D02*
X118175295Y-83568095D01*
X118175295Y-83568095D02*
X118270533Y-83568095D01*
X118270533Y-83568095D02*
X118413390Y-83615714D01*
X118413390Y-83615714D02*
X118984819Y-84187142D01*
X118984819Y-84187142D02*
X118984819Y-83568095D01*
X108884819Y-85472857D02*
X108408628Y-85806190D01*
X108884819Y-86044285D02*
X107884819Y-86044285D01*
X107884819Y-86044285D02*
X107884819Y-85663333D01*
X107884819Y-85663333D02*
X107932438Y-85568095D01*
X107932438Y-85568095D02*
X107980057Y-85520476D01*
X107980057Y-85520476D02*
X108075295Y-85472857D01*
X108075295Y-85472857D02*
X108218152Y-85472857D01*
X108218152Y-85472857D02*
X108313390Y-85520476D01*
X108313390Y-85520476D02*
X108361009Y-85568095D01*
X108361009Y-85568095D02*
X108408628Y-85663333D01*
X108408628Y-85663333D02*
X108408628Y-86044285D01*
X108884819Y-84520476D02*
X108884819Y-85091904D01*
X108884819Y-84806190D02*
X107884819Y-84806190D01*
X107884819Y-84806190D02*
X108027676Y-84901428D01*
X108027676Y-84901428D02*
X108122914Y-84996666D01*
X108122914Y-84996666D02*
X108170533Y-85091904D01*
X107884819Y-83901428D02*
X107884819Y-83806190D01*
X107884819Y-83806190D02*
X107932438Y-83710952D01*
X107932438Y-83710952D02*
X107980057Y-83663333D01*
X107980057Y-83663333D02*
X108075295Y-83615714D01*
X108075295Y-83615714D02*
X108265771Y-83568095D01*
X108265771Y-83568095D02*
X108503866Y-83568095D01*
X108503866Y-83568095D02*
X108694342Y-83615714D01*
X108694342Y-83615714D02*
X108789580Y-83663333D01*
X108789580Y-83663333D02*
X108837200Y-83710952D01*
X108837200Y-83710952D02*
X108884819Y-83806190D01*
X108884819Y-83806190D02*
X108884819Y-83901428D01*
X108884819Y-83901428D02*
X108837200Y-83996666D01*
X108837200Y-83996666D02*
X108789580Y-84044285D01*
X108789580Y-84044285D02*
X108694342Y-84091904D01*
X108694342Y-84091904D02*
X108503866Y-84139523D01*
X108503866Y-84139523D02*
X108265771Y-84139523D01*
X108265771Y-84139523D02*
X108075295Y-84091904D01*
X108075295Y-84091904D02*
X107980057Y-84044285D01*
X107980057Y-84044285D02*
X107932438Y-83996666D01*
X107932438Y-83996666D02*
X107884819Y-83901428D01*
X86508095Y-56084819D02*
X86508095Y-56894342D01*
X86508095Y-56894342D02*
X86555714Y-56989580D01*
X86555714Y-56989580D02*
X86603333Y-57037200D01*
X86603333Y-57037200D02*
X86698571Y-57084819D01*
X86698571Y-57084819D02*
X86889047Y-57084819D01*
X86889047Y-57084819D02*
X86984285Y-57037200D01*
X86984285Y-57037200D02*
X87031904Y-56989580D01*
X87031904Y-56989580D02*
X87079523Y-56894342D01*
X87079523Y-56894342D02*
X87079523Y-56084819D01*
X87508095Y-56180057D02*
X87555714Y-56132438D01*
X87555714Y-56132438D02*
X87650952Y-56084819D01*
X87650952Y-56084819D02*
X87889047Y-56084819D01*
X87889047Y-56084819D02*
X87984285Y-56132438D01*
X87984285Y-56132438D02*
X88031904Y-56180057D01*
X88031904Y-56180057D02*
X88079523Y-56275295D01*
X88079523Y-56275295D02*
X88079523Y-56370533D01*
X88079523Y-56370533D02*
X88031904Y-56513390D01*
X88031904Y-56513390D02*
X87460476Y-57084819D01*
X87460476Y-57084819D02*
X88079523Y-57084819D01*
X74518095Y-56074819D02*
X74518095Y-56884342D01*
X74518095Y-56884342D02*
X74565714Y-56979580D01*
X74565714Y-56979580D02*
X74613333Y-57027200D01*
X74613333Y-57027200D02*
X74708571Y-57074819D01*
X74708571Y-57074819D02*
X74899047Y-57074819D01*
X74899047Y-57074819D02*
X74994285Y-57027200D01*
X74994285Y-57027200D02*
X75041904Y-56979580D01*
X75041904Y-56979580D02*
X75089523Y-56884342D01*
X75089523Y-56884342D02*
X75089523Y-56074819D01*
X76089523Y-57074819D02*
X75518095Y-57074819D01*
X75803809Y-57074819D02*
X75803809Y-56074819D01*
X75803809Y-56074819D02*
X75708571Y-56217676D01*
X75708571Y-56217676D02*
X75613333Y-56312914D01*
X75613333Y-56312914D02*
X75518095Y-56360533D01*
X86256905Y-65994819D02*
X86256905Y-64994819D01*
X86256905Y-64994819D02*
X86495000Y-64994819D01*
X86495000Y-64994819D02*
X86637857Y-65042438D01*
X86637857Y-65042438D02*
X86733095Y-65137676D01*
X86733095Y-65137676D02*
X86780714Y-65232914D01*
X86780714Y-65232914D02*
X86828333Y-65423390D01*
X86828333Y-65423390D02*
X86828333Y-65566247D01*
X86828333Y-65566247D02*
X86780714Y-65756723D01*
X86780714Y-65756723D02*
X86733095Y-65851961D01*
X86733095Y-65851961D02*
X86637857Y-65947200D01*
X86637857Y-65947200D02*
X86495000Y-65994819D01*
X86495000Y-65994819D02*
X86256905Y-65994819D01*
X87209286Y-65090057D02*
X87256905Y-65042438D01*
X87256905Y-65042438D02*
X87352143Y-64994819D01*
X87352143Y-64994819D02*
X87590238Y-64994819D01*
X87590238Y-64994819D02*
X87685476Y-65042438D01*
X87685476Y-65042438D02*
X87733095Y-65090057D01*
X87733095Y-65090057D02*
X87780714Y-65185295D01*
X87780714Y-65185295D02*
X87780714Y-65280533D01*
X87780714Y-65280533D02*
X87733095Y-65423390D01*
X87733095Y-65423390D02*
X87161667Y-65994819D01*
X87161667Y-65994819D02*
X87780714Y-65994819D01*
X67534819Y-65863333D02*
X68249104Y-65863333D01*
X68249104Y-65863333D02*
X68391961Y-65910952D01*
X68391961Y-65910952D02*
X68487200Y-66006190D01*
X68487200Y-66006190D02*
X68534819Y-66149047D01*
X68534819Y-66149047D02*
X68534819Y-66244285D01*
X67534819Y-65482380D02*
X67534819Y-64863333D01*
X67534819Y-64863333D02*
X67915771Y-65196666D01*
X67915771Y-65196666D02*
X67915771Y-65053809D01*
X67915771Y-65053809D02*
X67963390Y-64958571D01*
X67963390Y-64958571D02*
X68011009Y-64910952D01*
X68011009Y-64910952D02*
X68106247Y-64863333D01*
X68106247Y-64863333D02*
X68344342Y-64863333D01*
X68344342Y-64863333D02*
X68439580Y-64910952D01*
X68439580Y-64910952D02*
X68487200Y-64958571D01*
X68487200Y-64958571D02*
X68534819Y-65053809D01*
X68534819Y-65053809D02*
X68534819Y-65339523D01*
X68534819Y-65339523D02*
X68487200Y-65434761D01*
X68487200Y-65434761D02*
X68439580Y-65482380D01*
X103698319Y-85166666D02*
X103222128Y-85499999D01*
X103698319Y-85738094D02*
X102698319Y-85738094D01*
X102698319Y-85738094D02*
X102698319Y-85357142D01*
X102698319Y-85357142D02*
X102745938Y-85261904D01*
X102745938Y-85261904D02*
X102793557Y-85214285D01*
X102793557Y-85214285D02*
X102888795Y-85166666D01*
X102888795Y-85166666D02*
X103031652Y-85166666D01*
X103031652Y-85166666D02*
X103126890Y-85214285D01*
X103126890Y-85214285D02*
X103174509Y-85261904D01*
X103174509Y-85261904D02*
X103222128Y-85357142D01*
X103222128Y-85357142D02*
X103222128Y-85738094D01*
X103698319Y-84690475D02*
X103698319Y-84499999D01*
X103698319Y-84499999D02*
X103650700Y-84404761D01*
X103650700Y-84404761D02*
X103603080Y-84357142D01*
X103603080Y-84357142D02*
X103460223Y-84261904D01*
X103460223Y-84261904D02*
X103269747Y-84214285D01*
X103269747Y-84214285D02*
X102888795Y-84214285D01*
X102888795Y-84214285D02*
X102793557Y-84261904D01*
X102793557Y-84261904D02*
X102745938Y-84309523D01*
X102745938Y-84309523D02*
X102698319Y-84404761D01*
X102698319Y-84404761D02*
X102698319Y-84595237D01*
X102698319Y-84595237D02*
X102745938Y-84690475D01*
X102745938Y-84690475D02*
X102793557Y-84738094D01*
X102793557Y-84738094D02*
X102888795Y-84785713D01*
X102888795Y-84785713D02*
X103126890Y-84785713D01*
X103126890Y-84785713D02*
X103222128Y-84738094D01*
X103222128Y-84738094D02*
X103269747Y-84690475D01*
X103269747Y-84690475D02*
X103317366Y-84595237D01*
X103317366Y-84595237D02*
X103317366Y-84404761D01*
X103317366Y-84404761D02*
X103269747Y-84309523D01*
X103269747Y-84309523D02*
X103222128Y-84261904D01*
X103222128Y-84261904D02*
X103126890Y-84214285D01*
X134874819Y-37923333D02*
X135589104Y-37923333D01*
X135589104Y-37923333D02*
X135731961Y-37970952D01*
X135731961Y-37970952D02*
X135827200Y-38066190D01*
X135827200Y-38066190D02*
X135874819Y-38209047D01*
X135874819Y-38209047D02*
X135874819Y-38304285D01*
X135874819Y-36923333D02*
X135874819Y-37494761D01*
X135874819Y-37209047D02*
X134874819Y-37209047D01*
X134874819Y-37209047D02*
X135017676Y-37304285D01*
X135017676Y-37304285D02*
X135112914Y-37399523D01*
X135112914Y-37399523D02*
X135160533Y-37494761D01*
X124261905Y-44734819D02*
X124261905Y-43734819D01*
X124261905Y-43734819D02*
X124500000Y-43734819D01*
X124500000Y-43734819D02*
X124642857Y-43782438D01*
X124642857Y-43782438D02*
X124738095Y-43877676D01*
X124738095Y-43877676D02*
X124785714Y-43972914D01*
X124785714Y-43972914D02*
X124833333Y-44163390D01*
X124833333Y-44163390D02*
X124833333Y-44306247D01*
X124833333Y-44306247D02*
X124785714Y-44496723D01*
X124785714Y-44496723D02*
X124738095Y-44591961D01*
X124738095Y-44591961D02*
X124642857Y-44687200D01*
X124642857Y-44687200D02*
X124500000Y-44734819D01*
X124500000Y-44734819D02*
X124261905Y-44734819D01*
X125690476Y-43734819D02*
X125500000Y-43734819D01*
X125500000Y-43734819D02*
X125404762Y-43782438D01*
X125404762Y-43782438D02*
X125357143Y-43830057D01*
X125357143Y-43830057D02*
X125261905Y-43972914D01*
X125261905Y-43972914D02*
X125214286Y-44163390D01*
X125214286Y-44163390D02*
X125214286Y-44544342D01*
X125214286Y-44544342D02*
X125261905Y-44639580D01*
X125261905Y-44639580D02*
X125309524Y-44687200D01*
X125309524Y-44687200D02*
X125404762Y-44734819D01*
X125404762Y-44734819D02*
X125595238Y-44734819D01*
X125595238Y-44734819D02*
X125690476Y-44687200D01*
X125690476Y-44687200D02*
X125738095Y-44639580D01*
X125738095Y-44639580D02*
X125785714Y-44544342D01*
X125785714Y-44544342D02*
X125785714Y-44306247D01*
X125785714Y-44306247D02*
X125738095Y-44211009D01*
X125738095Y-44211009D02*
X125690476Y-44163390D01*
X125690476Y-44163390D02*
X125595238Y-44115771D01*
X125595238Y-44115771D02*
X125404762Y-44115771D01*
X125404762Y-44115771D02*
X125309524Y-44163390D01*
X125309524Y-44163390D02*
X125261905Y-44211009D01*
X125261905Y-44211009D02*
X125214286Y-44306247D01*
X117118095Y-45854819D02*
X117118095Y-44854819D01*
X117689523Y-45854819D02*
X117260952Y-45283390D01*
X117689523Y-44854819D02*
X117118095Y-45426247D01*
X70259819Y-85011666D02*
X69783628Y-85344999D01*
X70259819Y-85583094D02*
X69259819Y-85583094D01*
X69259819Y-85583094D02*
X69259819Y-85202142D01*
X69259819Y-85202142D02*
X69307438Y-85106904D01*
X69307438Y-85106904D02*
X69355057Y-85059285D01*
X69355057Y-85059285D02*
X69450295Y-85011666D01*
X69450295Y-85011666D02*
X69593152Y-85011666D01*
X69593152Y-85011666D02*
X69688390Y-85059285D01*
X69688390Y-85059285D02*
X69736009Y-85106904D01*
X69736009Y-85106904D02*
X69783628Y-85202142D01*
X69783628Y-85202142D02*
X69783628Y-85583094D01*
X69259819Y-84678332D02*
X69259819Y-84059285D01*
X69259819Y-84059285D02*
X69640771Y-84392618D01*
X69640771Y-84392618D02*
X69640771Y-84249761D01*
X69640771Y-84249761D02*
X69688390Y-84154523D01*
X69688390Y-84154523D02*
X69736009Y-84106904D01*
X69736009Y-84106904D02*
X69831247Y-84059285D01*
X69831247Y-84059285D02*
X70069342Y-84059285D01*
X70069342Y-84059285D02*
X70164580Y-84106904D01*
X70164580Y-84106904D02*
X70212200Y-84154523D01*
X70212200Y-84154523D02*
X70259819Y-84249761D01*
X70259819Y-84249761D02*
X70259819Y-84535475D01*
X70259819Y-84535475D02*
X70212200Y-84630713D01*
X70212200Y-84630713D02*
X70164580Y-84678332D01*
X101364761Y-37150057D02*
X101269523Y-37102438D01*
X101269523Y-37102438D02*
X101174285Y-37007200D01*
X101174285Y-37007200D02*
X101031428Y-36864342D01*
X101031428Y-36864342D02*
X100936190Y-36816723D01*
X100936190Y-36816723D02*
X100840952Y-36816723D01*
X100888571Y-37054819D02*
X100793333Y-37007200D01*
X100793333Y-37007200D02*
X100698095Y-36911961D01*
X100698095Y-36911961D02*
X100650476Y-36721485D01*
X100650476Y-36721485D02*
X100650476Y-36388152D01*
X100650476Y-36388152D02*
X100698095Y-36197676D01*
X100698095Y-36197676D02*
X100793333Y-36102438D01*
X100793333Y-36102438D02*
X100888571Y-36054819D01*
X100888571Y-36054819D02*
X101079047Y-36054819D01*
X101079047Y-36054819D02*
X101174285Y-36102438D01*
X101174285Y-36102438D02*
X101269523Y-36197676D01*
X101269523Y-36197676D02*
X101317142Y-36388152D01*
X101317142Y-36388152D02*
X101317142Y-36721485D01*
X101317142Y-36721485D02*
X101269523Y-36911961D01*
X101269523Y-36911961D02*
X101174285Y-37007200D01*
X101174285Y-37007200D02*
X101079047Y-37054819D01*
X101079047Y-37054819D02*
X100888571Y-37054819D01*
X101698095Y-36150057D02*
X101745714Y-36102438D01*
X101745714Y-36102438D02*
X101840952Y-36054819D01*
X101840952Y-36054819D02*
X102079047Y-36054819D01*
X102079047Y-36054819D02*
X102174285Y-36102438D01*
X102174285Y-36102438D02*
X102221904Y-36150057D01*
X102221904Y-36150057D02*
X102269523Y-36245295D01*
X102269523Y-36245295D02*
X102269523Y-36340533D01*
X102269523Y-36340533D02*
X102221904Y-36483390D01*
X102221904Y-36483390D02*
X101650476Y-37054819D01*
X101650476Y-37054819D02*
X102269523Y-37054819D01*
X113664166Y-39534819D02*
X113664166Y-40249104D01*
X113664166Y-40249104D02*
X113616547Y-40391961D01*
X113616547Y-40391961D02*
X113521309Y-40487200D01*
X113521309Y-40487200D02*
X113378452Y-40534819D01*
X113378452Y-40534819D02*
X113283214Y-40534819D01*
X114568928Y-39534819D02*
X114378452Y-39534819D01*
X114378452Y-39534819D02*
X114283214Y-39582438D01*
X114283214Y-39582438D02*
X114235595Y-39630057D01*
X114235595Y-39630057D02*
X114140357Y-39772914D01*
X114140357Y-39772914D02*
X114092738Y-39963390D01*
X114092738Y-39963390D02*
X114092738Y-40344342D01*
X114092738Y-40344342D02*
X114140357Y-40439580D01*
X114140357Y-40439580D02*
X114187976Y-40487200D01*
X114187976Y-40487200D02*
X114283214Y-40534819D01*
X114283214Y-40534819D02*
X114473690Y-40534819D01*
X114473690Y-40534819D02*
X114568928Y-40487200D01*
X114568928Y-40487200D02*
X114616547Y-40439580D01*
X114616547Y-40439580D02*
X114664166Y-40344342D01*
X114664166Y-40344342D02*
X114664166Y-40106247D01*
X114664166Y-40106247D02*
X114616547Y-40011009D01*
X114616547Y-40011009D02*
X114568928Y-39963390D01*
X114568928Y-39963390D02*
X114473690Y-39915771D01*
X114473690Y-39915771D02*
X114283214Y-39915771D01*
X114283214Y-39915771D02*
X114187976Y-39963390D01*
X114187976Y-39963390D02*
X114140357Y-40011009D01*
X114140357Y-40011009D02*
X114092738Y-40106247D01*
X130345476Y-80124819D02*
X130345476Y-80839104D01*
X130345476Y-80839104D02*
X130297857Y-80981961D01*
X130297857Y-80981961D02*
X130202619Y-81077200D01*
X130202619Y-81077200D02*
X130059762Y-81124819D01*
X130059762Y-81124819D02*
X129964524Y-81124819D01*
X131345476Y-81124819D02*
X130774048Y-81124819D01*
X131059762Y-81124819D02*
X131059762Y-80124819D01*
X131059762Y-80124819D02*
X130964524Y-80267676D01*
X130964524Y-80267676D02*
X130869286Y-80362914D01*
X130869286Y-80362914D02*
X130774048Y-80410533D01*
X131964524Y-80124819D02*
X132059762Y-80124819D01*
X132059762Y-80124819D02*
X132155000Y-80172438D01*
X132155000Y-80172438D02*
X132202619Y-80220057D01*
X132202619Y-80220057D02*
X132250238Y-80315295D01*
X132250238Y-80315295D02*
X132297857Y-80505771D01*
X132297857Y-80505771D02*
X132297857Y-80743866D01*
X132297857Y-80743866D02*
X132250238Y-80934342D01*
X132250238Y-80934342D02*
X132202619Y-81029580D01*
X132202619Y-81029580D02*
X132155000Y-81077200D01*
X132155000Y-81077200D02*
X132059762Y-81124819D01*
X132059762Y-81124819D02*
X131964524Y-81124819D01*
X131964524Y-81124819D02*
X131869286Y-81077200D01*
X131869286Y-81077200D02*
X131821667Y-81029580D01*
X131821667Y-81029580D02*
X131774048Y-80934342D01*
X131774048Y-80934342D02*
X131726429Y-80743866D01*
X131726429Y-80743866D02*
X131726429Y-80505771D01*
X131726429Y-80505771D02*
X131774048Y-80315295D01*
X131774048Y-80315295D02*
X131821667Y-80220057D01*
X131821667Y-80220057D02*
X131869286Y-80172438D01*
X131869286Y-80172438D02*
X131964524Y-80124819D01*
X97536295Y-55901719D02*
X97536295Y-56711242D01*
X97536295Y-56711242D02*
X97583914Y-56806480D01*
X97583914Y-56806480D02*
X97631533Y-56854100D01*
X97631533Y-56854100D02*
X97726771Y-56901719D01*
X97726771Y-56901719D02*
X97917247Y-56901719D01*
X97917247Y-56901719D02*
X98012485Y-56854100D01*
X98012485Y-56854100D02*
X98060104Y-56806480D01*
X98060104Y-56806480D02*
X98107723Y-56711242D01*
X98107723Y-56711242D02*
X98107723Y-55901719D01*
X98488676Y-55901719D02*
X99107723Y-55901719D01*
X99107723Y-55901719D02*
X98774390Y-56282671D01*
X98774390Y-56282671D02*
X98917247Y-56282671D01*
X98917247Y-56282671D02*
X99012485Y-56330290D01*
X99012485Y-56330290D02*
X99060104Y-56377909D01*
X99060104Y-56377909D02*
X99107723Y-56473147D01*
X99107723Y-56473147D02*
X99107723Y-56711242D01*
X99107723Y-56711242D02*
X99060104Y-56806480D01*
X99060104Y-56806480D02*
X99012485Y-56854100D01*
X99012485Y-56854100D02*
X98917247Y-56901719D01*
X98917247Y-56901719D02*
X98631533Y-56901719D01*
X98631533Y-56901719D02*
X98536295Y-56854100D01*
X98536295Y-56854100D02*
X98488676Y-56806480D01*
X78304761Y-37050057D02*
X78209523Y-37002438D01*
X78209523Y-37002438D02*
X78114285Y-36907200D01*
X78114285Y-36907200D02*
X77971428Y-36764342D01*
X77971428Y-36764342D02*
X77876190Y-36716723D01*
X77876190Y-36716723D02*
X77780952Y-36716723D01*
X77828571Y-36954819D02*
X77733333Y-36907200D01*
X77733333Y-36907200D02*
X77638095Y-36811961D01*
X77638095Y-36811961D02*
X77590476Y-36621485D01*
X77590476Y-36621485D02*
X77590476Y-36288152D01*
X77590476Y-36288152D02*
X77638095Y-36097676D01*
X77638095Y-36097676D02*
X77733333Y-36002438D01*
X77733333Y-36002438D02*
X77828571Y-35954819D01*
X77828571Y-35954819D02*
X78019047Y-35954819D01*
X78019047Y-35954819D02*
X78114285Y-36002438D01*
X78114285Y-36002438D02*
X78209523Y-36097676D01*
X78209523Y-36097676D02*
X78257142Y-36288152D01*
X78257142Y-36288152D02*
X78257142Y-36621485D01*
X78257142Y-36621485D02*
X78209523Y-36811961D01*
X78209523Y-36811961D02*
X78114285Y-36907200D01*
X78114285Y-36907200D02*
X78019047Y-36954819D01*
X78019047Y-36954819D02*
X77828571Y-36954819D01*
X79209523Y-36954819D02*
X78638095Y-36954819D01*
X78923809Y-36954819D02*
X78923809Y-35954819D01*
X78923809Y-35954819D02*
X78828571Y-36097676D01*
X78828571Y-36097676D02*
X78733333Y-36192914D01*
X78733333Y-36192914D02*
X78638095Y-36240533D01*
X89164166Y-39534819D02*
X89164166Y-40249104D01*
X89164166Y-40249104D02*
X89116547Y-40391961D01*
X89116547Y-40391961D02*
X89021309Y-40487200D01*
X89021309Y-40487200D02*
X88878452Y-40534819D01*
X88878452Y-40534819D02*
X88783214Y-40534819D01*
X90116547Y-39534819D02*
X89640357Y-39534819D01*
X89640357Y-39534819D02*
X89592738Y-40011009D01*
X89592738Y-40011009D02*
X89640357Y-39963390D01*
X89640357Y-39963390D02*
X89735595Y-39915771D01*
X89735595Y-39915771D02*
X89973690Y-39915771D01*
X89973690Y-39915771D02*
X90068928Y-39963390D01*
X90068928Y-39963390D02*
X90116547Y-40011009D01*
X90116547Y-40011009D02*
X90164166Y-40106247D01*
X90164166Y-40106247D02*
X90164166Y-40344342D01*
X90164166Y-40344342D02*
X90116547Y-40439580D01*
X90116547Y-40439580D02*
X90068928Y-40487200D01*
X90068928Y-40487200D02*
X89973690Y-40534819D01*
X89973690Y-40534819D02*
X89735595Y-40534819D01*
X89735595Y-40534819D02*
X89640357Y-40487200D01*
X89640357Y-40487200D02*
X89592738Y-40439580D01*
X142901666Y-80074819D02*
X142901666Y-80789104D01*
X142901666Y-80789104D02*
X142854047Y-80931961D01*
X142854047Y-80931961D02*
X142758809Y-81027200D01*
X142758809Y-81027200D02*
X142615952Y-81074819D01*
X142615952Y-81074819D02*
X142520714Y-81074819D01*
X143282619Y-80074819D02*
X143949285Y-80074819D01*
X143949285Y-80074819D02*
X143520714Y-81074819D01*
D10*
X135057419Y-66980951D02*
X134057419Y-66980951D01*
X135057419Y-66504761D02*
X134057419Y-66504761D01*
X134057419Y-66504761D02*
X135057419Y-65933333D01*
X135057419Y-65933333D02*
X134057419Y-65933333D01*
X134771704Y-65504761D02*
X134771704Y-65028571D01*
X135057419Y-65599999D02*
X134057419Y-65266666D01*
X134057419Y-65266666D02*
X135057419Y-64933333D01*
X134152657Y-64647618D02*
X134105038Y-64599999D01*
X134105038Y-64599999D02*
X134057419Y-64504761D01*
X134057419Y-64504761D02*
X134057419Y-64266666D01*
X134057419Y-64266666D02*
X134105038Y-64171428D01*
X134105038Y-64171428D02*
X134152657Y-64123809D01*
X134152657Y-64123809D02*
X134247895Y-64076190D01*
X134247895Y-64076190D02*
X134343133Y-64076190D01*
X134343133Y-64076190D02*
X134485990Y-64123809D01*
X134485990Y-64123809D02*
X135057419Y-64695237D01*
X135057419Y-64695237D02*
X135057419Y-64076190D01*
X134152657Y-63695237D02*
X134105038Y-63647618D01*
X134105038Y-63647618D02*
X134057419Y-63552380D01*
X134057419Y-63552380D02*
X134057419Y-63314285D01*
X134057419Y-63314285D02*
X134105038Y-63219047D01*
X134105038Y-63219047D02*
X134152657Y-63171428D01*
X134152657Y-63171428D02*
X134247895Y-63123809D01*
X134247895Y-63123809D02*
X134343133Y-63123809D01*
X134343133Y-63123809D02*
X134485990Y-63171428D01*
X134485990Y-63171428D02*
X135057419Y-63742856D01*
X135057419Y-63742856D02*
X135057419Y-63123809D01*
X134057419Y-62266666D02*
X134057419Y-62457142D01*
X134057419Y-62457142D02*
X134105038Y-62552380D01*
X134105038Y-62552380D02*
X134152657Y-62599999D01*
X134152657Y-62599999D02*
X134295514Y-62695237D01*
X134295514Y-62695237D02*
X134485990Y-62742856D01*
X134485990Y-62742856D02*
X134866942Y-62742856D01*
X134866942Y-62742856D02*
X134962180Y-62695237D01*
X134962180Y-62695237D02*
X135009800Y-62647618D01*
X135009800Y-62647618D02*
X135057419Y-62552380D01*
X135057419Y-62552380D02*
X135057419Y-62361904D01*
X135057419Y-62361904D02*
X135009800Y-62266666D01*
X135009800Y-62266666D02*
X134962180Y-62219047D01*
X134962180Y-62219047D02*
X134866942Y-62171428D01*
X134866942Y-62171428D02*
X134628847Y-62171428D01*
X134628847Y-62171428D02*
X134533609Y-62219047D01*
X134533609Y-62219047D02*
X134485990Y-62266666D01*
X134485990Y-62266666D02*
X134438371Y-62361904D01*
X134438371Y-62361904D02*
X134438371Y-62552380D01*
X134438371Y-62552380D02*
X134485990Y-62647618D01*
X134485990Y-62647618D02*
X134533609Y-62695237D01*
X134533609Y-62695237D02*
X134628847Y-62742856D01*
D13*
X92234819Y-85086666D02*
X91758628Y-85419999D01*
X92234819Y-85658094D02*
X91234819Y-85658094D01*
X91234819Y-85658094D02*
X91234819Y-85277142D01*
X91234819Y-85277142D02*
X91282438Y-85181904D01*
X91282438Y-85181904D02*
X91330057Y-85134285D01*
X91330057Y-85134285D02*
X91425295Y-85086666D01*
X91425295Y-85086666D02*
X91568152Y-85086666D01*
X91568152Y-85086666D02*
X91663390Y-85134285D01*
X91663390Y-85134285D02*
X91711009Y-85181904D01*
X91711009Y-85181904D02*
X91758628Y-85277142D01*
X91758628Y-85277142D02*
X91758628Y-85658094D01*
X91234819Y-84753332D02*
X91234819Y-84086666D01*
X91234819Y-84086666D02*
X92234819Y-84515237D01*
X74984819Y-85166666D02*
X74508628Y-85499999D01*
X74984819Y-85738094D02*
X73984819Y-85738094D01*
X73984819Y-85738094D02*
X73984819Y-85357142D01*
X73984819Y-85357142D02*
X74032438Y-85261904D01*
X74032438Y-85261904D02*
X74080057Y-85214285D01*
X74080057Y-85214285D02*
X74175295Y-85166666D01*
X74175295Y-85166666D02*
X74318152Y-85166666D01*
X74318152Y-85166666D02*
X74413390Y-85214285D01*
X74413390Y-85214285D02*
X74461009Y-85261904D01*
X74461009Y-85261904D02*
X74508628Y-85357142D01*
X74508628Y-85357142D02*
X74508628Y-85738094D01*
X74318152Y-84309523D02*
X74984819Y-84309523D01*
X73937200Y-84547618D02*
X74651485Y-84785713D01*
X74651485Y-84785713D02*
X74651485Y-84166666D01*
%TO.C,J9*%
D14*
X107950000Y-72797500D02*
X107950000Y-67207500D01*
X108200000Y-72797500D02*
X108200000Y-67207500D01*
X109050000Y-73107500D02*
X109050000Y-74407500D01*
X109050000Y-74407500D02*
X111250000Y-74407500D01*
X109090000Y-72797500D02*
X109090000Y-67207500D01*
X109340000Y-65937500D02*
X111250000Y-65937500D01*
X109340000Y-67207500D02*
X107950000Y-67207500D01*
X109340000Y-72797500D02*
X107950000Y-72797500D01*
X109340000Y-74067500D02*
X109340000Y-65937500D01*
X109340000Y-74067500D02*
X111250000Y-74067500D01*
X111250000Y-74067500D02*
X116080000Y-74067500D01*
X115820000Y-69617500D02*
X116080000Y-69617500D01*
X115820000Y-70387500D02*
X115820000Y-69617500D01*
X116080000Y-65937500D02*
X111250000Y-65937500D01*
X116080000Y-69617500D02*
X116080000Y-65937500D01*
X116080000Y-70387500D02*
X115820000Y-70387500D01*
X116080000Y-70387500D02*
X116080000Y-74067500D01*
%TO.C,Q3*%
X120350000Y-31140000D02*
X130570000Y-31140000D01*
X120350000Y-35760000D02*
X120350000Y-31140000D01*
X123610000Y-35760000D02*
X123610000Y-34380000D01*
X127310000Y-35760000D02*
X127310000Y-34380000D01*
X130570000Y-31140000D02*
X130570000Y-35760000D01*
X130570000Y-34380000D02*
X120350000Y-34380000D01*
X130570000Y-35760000D02*
X120350000Y-35760000D01*
%TO.C,J8*%
X107950000Y-62770000D02*
X107950000Y-57180000D01*
X108200000Y-62770000D02*
X108200000Y-57180000D01*
X109050000Y-63080000D02*
X109050000Y-64380000D01*
X109050000Y-64380000D02*
X111250000Y-64380000D01*
X109090000Y-62770000D02*
X109090000Y-57180000D01*
X109340000Y-55910000D02*
X111250000Y-55910000D01*
X109340000Y-57180000D02*
X107950000Y-57180000D01*
X109340000Y-62770000D02*
X107950000Y-62770000D01*
X109340000Y-64040000D02*
X109340000Y-55910000D01*
X109340000Y-64040000D02*
X111250000Y-64040000D01*
X111250000Y-64040000D02*
X116080000Y-64040000D01*
X115820000Y-59590000D02*
X116080000Y-59590000D01*
X115820000Y-60360000D02*
X115820000Y-59590000D01*
X116080000Y-55910000D02*
X111250000Y-55910000D01*
X116080000Y-59590000D02*
X116080000Y-55910000D01*
X116080000Y-60360000D02*
X115820000Y-60360000D01*
X116080000Y-60360000D02*
X116080000Y-64040000D01*
%TO.C,R6*%
X88650000Y-80880000D02*
X88650000Y-81650000D01*
X88650000Y-88960000D02*
X88650000Y-88190000D01*
X87280000Y-81650000D02*
X90020000Y-81650000D01*
X90020000Y-88190000D01*
X87280000Y-88190000D01*
X87280000Y-81650000D01*
%TO.C,R5*%
X83650000Y-80880000D02*
X83650000Y-81650000D01*
X83650000Y-88960000D02*
X83650000Y-88190000D01*
X82280000Y-81650000D02*
X85020000Y-81650000D01*
X85020000Y-88190000D01*
X82280000Y-88190000D01*
X82280000Y-81650000D01*
%TO.C,R8*%
X98975000Y-80805000D02*
X98975000Y-81575000D01*
X98975000Y-88885000D02*
X98975000Y-88115000D01*
X97605000Y-81575000D02*
X100345000Y-81575000D01*
X100345000Y-88115000D01*
X97605000Y-88115000D01*
X97605000Y-81575000D01*
%TO.C,D3*%
X95973200Y-67976900D02*
X95973200Y-71066900D01*
X95973200Y-67977070D02*
G75*
G02*
X101523200Y-69521900I2560000J-1544830D01*
G01*
X101523200Y-69521900D02*
G75*
G02*
X95973200Y-71066730I-2990000J0D01*
G01*
X101033200Y-69521900D02*
G75*
G02*
X96033200Y-69521900I-2500000J0D01*
G01*
X96033200Y-69521900D02*
G75*
G02*
X101033200Y-69521900I2500000J0D01*
G01*
%TO.C,D1*%
X72710000Y-67955000D02*
X72710000Y-71045000D01*
X72710000Y-67955170D02*
G75*
G02*
X78260000Y-69500000I2560000J-1544830D01*
G01*
X78260000Y-69500000D02*
G75*
G02*
X72710000Y-71044830I-2990000J0D01*
G01*
X77770000Y-69500000D02*
G75*
G02*
X72770000Y-69500000I-2500000J0D01*
G01*
X72770000Y-69500000D02*
G75*
G02*
X77770000Y-69500000I2500000J0D01*
G01*
%TO.C,J2*%
X58170000Y-54640000D02*
X58170000Y-50960000D01*
X58170000Y-54640000D02*
X58430000Y-54640000D01*
X58170000Y-55410000D02*
X58170000Y-59090000D01*
X58170000Y-59090000D02*
X63000000Y-59090000D01*
X58430000Y-54640000D02*
X58430000Y-55410000D01*
X58430000Y-55410000D02*
X58170000Y-55410000D01*
X63000000Y-50960000D02*
X58170000Y-50960000D01*
X64910000Y-50960000D02*
X63000000Y-50960000D01*
X64910000Y-50960000D02*
X64910000Y-59090000D01*
X64910000Y-52230000D02*
X66300000Y-52230000D01*
X64910000Y-57820000D02*
X66300000Y-57820000D01*
X64910000Y-59090000D02*
X63000000Y-59090000D01*
X65160000Y-52230000D02*
X65160000Y-57820000D01*
X65200000Y-50620000D02*
X63000000Y-50620000D01*
X65200000Y-51920000D02*
X65200000Y-50620000D01*
X66050000Y-52230000D02*
X66050000Y-57820000D01*
X66300000Y-52230000D02*
X66300000Y-57820000D01*
%TO.C,R11*%
X116100000Y-80790000D02*
X116100000Y-81560000D01*
X116100000Y-88870000D02*
X116100000Y-88100000D01*
X114730000Y-81560000D02*
X117470000Y-81560000D01*
X117470000Y-88100000D01*
X114730000Y-88100000D01*
X114730000Y-81560000D01*
%TO.C,J4*%
X62910000Y-30170000D02*
X62910000Y-35000000D01*
X62910000Y-36910000D02*
X62910000Y-35000000D01*
X64180000Y-36910000D02*
X64180000Y-38300000D01*
X66590000Y-30170000D02*
X62910000Y-30170000D01*
X66590000Y-30430000D02*
X66590000Y-30170000D01*
X67360000Y-30170000D02*
X67360000Y-30430000D01*
X67360000Y-30170000D02*
X71040000Y-30170000D01*
X67360000Y-30430000D02*
X66590000Y-30430000D01*
X69770000Y-36910000D02*
X69770000Y-38300000D01*
X69770000Y-37160000D02*
X64180000Y-37160000D01*
X69770000Y-38050000D02*
X64180000Y-38050000D01*
X69770000Y-38300000D02*
X64180000Y-38300000D01*
X70080000Y-37200000D02*
X71380000Y-37200000D01*
X71040000Y-35000000D02*
X71040000Y-30170000D01*
X71040000Y-36910000D02*
X62910000Y-36910000D01*
X71040000Y-36910000D02*
X71040000Y-35000000D01*
X71380000Y-37200000D02*
X71380000Y-35000000D01*
%TO.C,D5*%
X97720000Y-48000000D02*
X98630000Y-48000000D01*
X100055000Y-45280000D02*
X100055000Y-50720000D01*
X100175000Y-45280000D02*
X100175000Y-50720000D01*
X100295000Y-45280000D02*
X100295000Y-50720000D01*
X109280000Y-48000000D02*
X108370000Y-48000000D01*
X98630000Y-45280000D02*
X108370000Y-45280000D01*
X108370000Y-50720000D01*
X98630000Y-50720000D01*
X98630000Y-45280000D01*
%TO.C,R2*%
X67150000Y-80880000D02*
X67150000Y-81650000D01*
X67150000Y-88960000D02*
X67150000Y-88190000D01*
X65780000Y-81650000D02*
X68520000Y-81650000D01*
X68520000Y-88190000D01*
X65780000Y-88190000D01*
X65780000Y-81650000D01*
%TO.C,D4*%
X75720000Y-48000000D02*
X76630000Y-48000000D01*
X78055000Y-45280000D02*
X78055000Y-50720000D01*
X78175000Y-45280000D02*
X78175000Y-50720000D01*
X78295000Y-45280000D02*
X78295000Y-50720000D01*
X87280000Y-48000000D02*
X86370000Y-48000000D01*
X76630000Y-45280000D02*
X86370000Y-45280000D01*
X86370000Y-50720000D01*
X76630000Y-50720000D01*
X76630000Y-45280000D01*
%TO.C,R1*%
X62150000Y-80880000D02*
X62150000Y-81650000D01*
X62150000Y-88960000D02*
X62150000Y-88190000D01*
X60780000Y-81650000D02*
X63520000Y-81650000D01*
X63520000Y-88190000D01*
X60780000Y-88190000D01*
X60780000Y-81650000D01*
%TO.C,R12*%
X120900000Y-80790000D02*
X120900000Y-81560000D01*
X120900000Y-88870000D02*
X120900000Y-88100000D01*
X119530000Y-81560000D02*
X122270000Y-81560000D01*
X122270000Y-88100000D01*
X119530000Y-88100000D01*
X119530000Y-81560000D01*
%TO.C,R10*%
X110800000Y-80790000D02*
X110800000Y-81560000D01*
X110800000Y-88870000D02*
X110800000Y-88100000D01*
X109430000Y-81560000D02*
X112170000Y-81560000D01*
X112170000Y-88100000D01*
X109430000Y-88100000D01*
X109430000Y-81560000D01*
%TO.C,U2*%
X84620000Y-57630000D02*
X84620000Y-62830000D01*
X84620000Y-62830000D02*
X89920000Y-62830000D01*
X86270000Y-57630000D02*
X84620000Y-57630000D01*
X89920000Y-57630000D02*
X88270000Y-57630000D01*
X89920000Y-62830000D02*
X89920000Y-57630000D01*
X88270000Y-57630000D02*
G75*
G02*
X86270000Y-57630000I-1000000J0D01*
G01*
%TO.C,U1*%
X72630000Y-57620000D02*
X72630000Y-62820000D01*
X72630000Y-62820000D02*
X77930000Y-62820000D01*
X74280000Y-57620000D02*
X72630000Y-57620000D01*
X77930000Y-57620000D02*
X76280000Y-57620000D01*
X77930000Y-62820000D02*
X77930000Y-57620000D01*
X76280000Y-57620000D02*
G75*
G02*
X74280000Y-57620000I-1000000J0D01*
G01*
%TO.C,D2*%
X84435000Y-67955000D02*
X84435000Y-71045000D01*
X84435000Y-67955170D02*
G75*
G02*
X89985000Y-69500000I2560000J-1544830D01*
G01*
X89985000Y-69500000D02*
G75*
G02*
X84435000Y-71044830I-2990000J0D01*
G01*
X89495000Y-69500000D02*
G75*
G02*
X84495000Y-69500000I-2500000J0D01*
G01*
X84495000Y-69500000D02*
G75*
G02*
X89495000Y-69500000I2500000J0D01*
G01*
%TO.C,J3*%
X58170000Y-65140000D02*
X58170000Y-61460000D01*
X58170000Y-65140000D02*
X58430000Y-65140000D01*
X58170000Y-65910000D02*
X58170000Y-69590000D01*
X58170000Y-69590000D02*
X63000000Y-69590000D01*
X58430000Y-65140000D02*
X58430000Y-65910000D01*
X58430000Y-65910000D02*
X58170000Y-65910000D01*
X63000000Y-61460000D02*
X58170000Y-61460000D01*
X64910000Y-61460000D02*
X63000000Y-61460000D01*
X64910000Y-61460000D02*
X64910000Y-69590000D01*
X64910000Y-62730000D02*
X66300000Y-62730000D01*
X64910000Y-68320000D02*
X66300000Y-68320000D01*
X64910000Y-69590000D02*
X63000000Y-69590000D01*
X65160000Y-62730000D02*
X65160000Y-68320000D01*
X65200000Y-61120000D02*
X63000000Y-61120000D01*
X65200000Y-62420000D02*
X65200000Y-61120000D01*
X66050000Y-62730000D02*
X66050000Y-68320000D01*
X66300000Y-62730000D02*
X66300000Y-68320000D01*
%TO.C,R9*%
X105613500Y-80960000D02*
X105613500Y-81730000D01*
X105613500Y-89040000D02*
X105613500Y-88270000D01*
X104243500Y-81730000D02*
X106983500Y-81730000D01*
X106983500Y-88270000D01*
X104243500Y-88270000D01*
X104243500Y-81730000D01*
%TO.C,J1*%
X137200000Y-40390000D02*
X137200000Y-34800000D01*
X137450000Y-40390000D02*
X137450000Y-34800000D01*
X138300000Y-40700000D02*
X138300000Y-42000000D01*
X138300000Y-42000000D02*
X140500000Y-42000000D01*
X138340000Y-40390000D02*
X138340000Y-34800000D01*
X138590000Y-33530000D02*
X140500000Y-33530000D01*
X138590000Y-34800000D02*
X137200000Y-34800000D01*
X138590000Y-40390000D02*
X137200000Y-40390000D01*
X138590000Y-41660000D02*
X138590000Y-33530000D01*
X138590000Y-41660000D02*
X140500000Y-41660000D01*
X140500000Y-41660000D02*
X145330000Y-41660000D01*
X145070000Y-37210000D02*
X145330000Y-37210000D01*
X145070000Y-37980000D02*
X145070000Y-37210000D01*
X145330000Y-33530000D02*
X140500000Y-33530000D01*
X145330000Y-37210000D02*
X145330000Y-33530000D01*
X145330000Y-37980000D02*
X145070000Y-37980000D01*
X145330000Y-37980000D02*
X145330000Y-41660000D01*
%TO.C,D6*%
X119220000Y-48000000D02*
X120130000Y-48000000D01*
X121555000Y-45280000D02*
X121555000Y-50720000D01*
X121675000Y-45280000D02*
X121675000Y-50720000D01*
X121795000Y-45280000D02*
X121795000Y-50720000D01*
X130780000Y-48000000D02*
X129870000Y-48000000D01*
X120130000Y-45280000D02*
X129870000Y-45280000D01*
X129870000Y-50720000D01*
X120130000Y-50720000D01*
X120130000Y-45280000D01*
%TO.C,R3*%
X72175000Y-80805000D02*
X72175000Y-81575000D01*
X72175000Y-88885000D02*
X72175000Y-88115000D01*
X70805000Y-81575000D02*
X73545000Y-81575000D01*
X73545000Y-88115000D01*
X70805000Y-88115000D01*
X70805000Y-81575000D01*
%TO.C,Q2*%
X96350000Y-31140000D02*
X106570000Y-31140000D01*
X96350000Y-35760000D02*
X96350000Y-31140000D01*
X99610000Y-35760000D02*
X99610000Y-34380000D01*
X103310000Y-35760000D02*
X103310000Y-34380000D01*
X106570000Y-31140000D02*
X106570000Y-35760000D01*
X106570000Y-34380000D02*
X96350000Y-34380000D01*
X106570000Y-35760000D02*
X96350000Y-35760000D01*
%TO.C,J6*%
X109937500Y-30170000D02*
X109937500Y-35000000D01*
X109937500Y-36910000D02*
X109937500Y-35000000D01*
X111207500Y-36910000D02*
X111207500Y-38300000D01*
X113617500Y-30170000D02*
X109937500Y-30170000D01*
X113617500Y-30430000D02*
X113617500Y-30170000D01*
X114387500Y-30170000D02*
X114387500Y-30430000D01*
X114387500Y-30170000D02*
X118067500Y-30170000D01*
X114387500Y-30430000D02*
X113617500Y-30430000D01*
X116797500Y-36910000D02*
X116797500Y-38300000D01*
X116797500Y-37160000D02*
X111207500Y-37160000D01*
X116797500Y-38050000D02*
X111207500Y-38050000D01*
X116797500Y-38300000D02*
X111207500Y-38300000D01*
X117107500Y-37200000D02*
X118407500Y-37200000D01*
X118067500Y-35000000D02*
X118067500Y-30170000D01*
X118067500Y-36910000D02*
X109937500Y-36910000D01*
X118067500Y-36910000D02*
X118067500Y-35000000D01*
X118407500Y-37200000D02*
X118407500Y-35000000D01*
%TO.C,J10*%
X126745000Y-83550000D02*
X126745000Y-85750000D01*
X127085000Y-83840000D02*
X127085000Y-85750000D01*
X127085000Y-83840000D02*
X135215000Y-83840000D01*
X127085000Y-85750000D02*
X127085000Y-90580000D01*
X128045000Y-83550000D02*
X126745000Y-83550000D01*
X128355000Y-82450000D02*
X133945000Y-82450000D01*
X128355000Y-82700000D02*
X133945000Y-82700000D01*
X128355000Y-83590000D02*
X133945000Y-83590000D01*
X128355000Y-83840000D02*
X128355000Y-82450000D01*
X130765000Y-90320000D02*
X131535000Y-90320000D01*
X130765000Y-90580000D02*
X127085000Y-90580000D01*
X130765000Y-90580000D02*
X130765000Y-90320000D01*
X131535000Y-90320000D02*
X131535000Y-90580000D01*
X131535000Y-90580000D02*
X135215000Y-90580000D01*
X133945000Y-83840000D02*
X133945000Y-82450000D01*
X135215000Y-83840000D02*
X135215000Y-85750000D01*
X135215000Y-90580000D02*
X135215000Y-85750000D01*
%TO.C,U3*%
X96118200Y-57616900D02*
X96118200Y-62816900D01*
X96118200Y-62816900D02*
X101418200Y-62816900D01*
X97768200Y-57616900D02*
X96118200Y-57616900D01*
X101418200Y-57616900D02*
X99768200Y-57616900D01*
X101418200Y-62816900D02*
X101418200Y-57616900D01*
X99768200Y-57616900D02*
G75*
G02*
X97768200Y-57616900I-1000000J0D01*
G01*
%TO.C,Q1*%
X73290000Y-31040000D02*
X83510000Y-31040000D01*
X73290000Y-35660000D02*
X73290000Y-31040000D01*
X76550000Y-35660000D02*
X76550000Y-34280000D01*
X80250000Y-35660000D02*
X80250000Y-34280000D01*
X83510000Y-31040000D02*
X83510000Y-35660000D01*
X83510000Y-34280000D02*
X73290000Y-34280000D01*
X83510000Y-35660000D02*
X73290000Y-35660000D01*
%TO.C,J5*%
X85437500Y-30170000D02*
X85437500Y-35000000D01*
X85437500Y-36910000D02*
X85437500Y-35000000D01*
X86707500Y-36910000D02*
X86707500Y-38300000D01*
X89117500Y-30170000D02*
X85437500Y-30170000D01*
X89117500Y-30430000D02*
X89117500Y-30170000D01*
X89887500Y-30170000D02*
X89887500Y-30430000D01*
X89887500Y-30170000D02*
X93567500Y-30170000D01*
X89887500Y-30430000D02*
X89117500Y-30430000D01*
X92297500Y-36910000D02*
X92297500Y-38300000D01*
X92297500Y-37160000D02*
X86707500Y-37160000D01*
X92297500Y-38050000D02*
X86707500Y-38050000D01*
X92297500Y-38300000D02*
X86707500Y-38300000D01*
X92607500Y-37200000D02*
X93907500Y-37200000D01*
X93567500Y-35000000D02*
X93567500Y-30170000D01*
X93567500Y-36910000D02*
X85437500Y-36910000D01*
X93567500Y-36910000D02*
X93567500Y-35000000D01*
X93907500Y-37200000D02*
X93907500Y-35000000D01*
%TO.C,J7*%
X138825000Y-83500000D02*
X138825000Y-85700000D01*
X139165000Y-83790000D02*
X139165000Y-85700000D01*
X139165000Y-83790000D02*
X147295000Y-83790000D01*
X139165000Y-85700000D02*
X139165000Y-90530000D01*
X140125000Y-83500000D02*
X138825000Y-83500000D01*
X140435000Y-82400000D02*
X146025000Y-82400000D01*
X140435000Y-82650000D02*
X146025000Y-82650000D01*
X140435000Y-83540000D02*
X146025000Y-83540000D01*
X140435000Y-83790000D02*
X140435000Y-82400000D01*
X142845000Y-90270000D02*
X143615000Y-90270000D01*
X142845000Y-90530000D02*
X139165000Y-90530000D01*
X142845000Y-90530000D02*
X142845000Y-90270000D01*
X143615000Y-90270000D02*
X143615000Y-90530000D01*
X143615000Y-90530000D02*
X147295000Y-90530000D01*
X146025000Y-83790000D02*
X146025000Y-82400000D01*
X147295000Y-83790000D02*
X147295000Y-85700000D01*
X147295000Y-90530000D02*
X147295000Y-85700000D01*
%TO.C,INA226*%
D10*
X121359144Y-54662979D02*
X148359144Y-54662979D01*
X148359144Y-74662979D01*
X121359144Y-74662979D01*
X121359144Y-54662979D01*
%TO.C,R7*%
D14*
X94150000Y-80880000D02*
X94150000Y-81650000D01*
X94150000Y-88960000D02*
X94150000Y-88190000D01*
X92780000Y-81650000D02*
X95520000Y-81650000D01*
X95520000Y-88190000D01*
X92780000Y-88190000D01*
X92780000Y-81650000D01*
%TO.C,R4*%
X76900000Y-80960000D02*
X76900000Y-81730000D01*
X76900000Y-89040000D02*
X76900000Y-88270000D01*
X75530000Y-81730000D02*
X78270000Y-81730000D01*
X78270000Y-88270000D01*
X75530000Y-88270000D01*
X75530000Y-81730000D01*
%TD*%
M02*
